<svg width="30" height="39" viewBox="0 0 30 39" fill="none" xmlns="http://www.w3.org/2000/svg">
<g clip-path="url(#clip0_703_725)">
<path d="M23.0726 1.02752C22.1858 1.15865 21.2924 1.15533 20.4173 1.01756C16.2032 0.352742 11.9577 0.495499 7.79759 1.44085L2.43467 2.66009V2.27332C2.43467 1.86829 2.10618 1.53962 1.70137 1.53962H0.732476C0.327665 1.53962 0 1.86829 0 2.27332L0.0945666 38.2671C0.0945666 38.6722 0.422231 39 0.827043 39H1.79594C2.20075 39 2.52924 38.6722 2.52924 38.2671L2.43467 23.0004L8.38573 21.6476C11.8548 20.8583 15.4044 20.6773 18.9357 21.1081C20.9838 21.3579 23.0104 21.338 24.9589 21.0492L30 20.3013V0L23.0726 1.02752ZM27.3455 18.0106L24.5699 18.4214C22.8569 18.6762 21.0693 18.6928 19.2576 18.4712C15.421 18.0031 11.5653 18.2007 7.79759 19.0572L3.76192 19.9752V5.08281L8.38573 4.03122C12.2157 3.16057 16.1244 3.0286 20.0041 3.64113C21.1456 3.82123 22.3086 3.82538 23.4616 3.65524L27.3455 3.07923V18.0106Z" fill="white"/>
</g>
<defs>
<clipPath id="clip0_703_725">
<rect width="30" height="39" fill="white"/>
</clipPath>
</defs>
</svg>
