<svg width="102" height="19" viewBox="0 0 102 19" fill="none" xmlns="http://www.w3.org/2000/svg">
<path d="M7.875 11.2969H9.82812C9.76562 12.0417 9.55729 12.7057 9.20312 13.2891C8.84896 13.8672 8.35156 14.3229 7.71094 14.6562C7.07031 14.9896 6.29167 15.1562 5.375 15.1562C4.67188 15.1562 4.03906 15.0312 3.47656 14.7812C2.91406 14.526 2.43229 14.1667 2.03125 13.7031C1.63021 13.2344 1.32292 12.6693 1.10938 12.0078C0.901042 11.3464 0.796875 10.6068 0.796875 9.78906V8.84375C0.796875 8.02604 0.903646 7.28646 1.11719 6.625C1.33594 5.96354 1.64844 5.39844 2.05469 4.92969C2.46094 4.45573 2.94792 4.09375 3.51562 3.84375C4.08854 3.59375 4.73177 3.46875 5.44531 3.46875C6.35156 3.46875 7.11719 3.63542 7.74219 3.96875C8.36719 4.30208 8.85156 4.76302 9.19531 5.35156C9.54427 5.9401 9.75781 6.61458 9.83594 7.375H7.88281C7.83073 6.88542 7.71615 6.46615 7.53906 6.11719C7.36719 5.76823 7.11198 5.5026 6.77344 5.32031C6.4349 5.13281 5.99219 5.03906 5.44531 5.03906C4.9974 5.03906 4.60677 5.1224 4.27344 5.28906C3.9401 5.45573 3.66146 5.70052 3.4375 6.02344C3.21354 6.34635 3.04427 6.74479 2.92969 7.21875C2.82031 7.6875 2.76562 8.22396 2.76562 8.82812V9.78906C2.76562 10.362 2.8151 10.8828 2.91406 11.3516C3.01823 11.8151 3.17448 12.2135 3.38281 12.5469C3.59635 12.8802 3.86719 13.138 4.19531 13.3203C4.52344 13.5026 4.91667 13.5938 5.375 13.5938C5.93229 13.5938 6.38281 13.5052 6.72656 13.3281C7.07552 13.151 7.33854 12.8932 7.51562 12.5547C7.69792 12.2109 7.81771 11.7917 7.875 11.2969ZM16.1875 13.3047V9.27344C16.1875 8.97135 16.1328 8.71094 16.0234 8.49219C15.9141 8.27344 15.7474 8.10417 15.5234 7.98438C15.3047 7.86458 15.0286 7.80469 14.6953 7.80469C14.388 7.80469 14.1224 7.85677 13.8984 7.96094C13.6745 8.0651 13.5 8.20573 13.375 8.38281C13.25 8.5599 13.1875 8.76042 13.1875 8.98438H11.3125C11.3125 8.65104 11.3932 8.32812 11.5547 8.01562C11.7161 7.70312 11.9505 7.42448 12.2578 7.17969C12.5651 6.9349 12.9323 6.74219 13.3594 6.60156C13.7865 6.46094 14.2656 6.39062 14.7969 6.39062C15.4323 6.39062 15.9948 6.4974 16.4844 6.71094C16.9792 6.92448 17.3672 7.2474 17.6484 7.67969C17.9349 8.10677 18.0781 8.64323 18.0781 9.28906V13.0469C18.0781 13.4323 18.1042 13.7786 18.1562 14.0859C18.2135 14.388 18.2943 14.651 18.3984 14.875V15H16.4688C16.3802 14.7969 16.3099 14.5391 16.2578 14.2266C16.2109 13.9089 16.1875 13.6016 16.1875 13.3047ZM16.4609 9.85938L16.4766 11.0234H15.125C14.776 11.0234 14.4688 11.0573 14.2031 11.125C13.9375 11.1875 13.7161 11.2812 13.5391 11.4062C13.362 11.5312 13.2292 11.6823 13.1406 11.8594C13.0521 12.0365 13.0078 12.237 13.0078 12.4609C13.0078 12.6849 13.0599 12.8906 13.1641 13.0781C13.2682 13.2604 13.4193 13.4036 13.6172 13.5078C13.8203 13.612 14.0651 13.6641 14.3516 13.6641C14.737 13.6641 15.0729 13.5859 15.3594 13.4297C15.651 13.2682 15.8802 13.0729 16.0469 12.8438C16.2135 12.6094 16.3021 12.388 16.3125 12.1797L16.9219 13.0156C16.8594 13.2292 16.7526 13.4583 16.6016 13.7031C16.4505 13.9479 16.2526 14.1823 16.0078 14.4062C15.7682 14.625 15.4792 14.8047 15.1406 14.9453C14.8073 15.0859 14.4219 15.1562 13.9844 15.1562C13.4323 15.1562 12.9401 15.0469 12.5078 14.8281C12.0755 14.6042 11.737 14.3047 11.4922 13.9297C11.2474 13.5495 11.125 13.1198 11.125 12.6406C11.125 12.1927 11.2083 11.7969 11.375 11.4531C11.5469 11.1042 11.7969 10.8125 12.125 10.5781C12.4583 10.3438 12.8646 10.1667 13.3438 10.0469C13.8229 9.92188 14.3698 9.85938 14.9844 9.85938H16.4609ZM23.9219 6.54688V7.92188H19.1562V6.54688H23.9219ZM20.5312 4.47656H22.4141V12.6641C22.4141 12.9245 22.4505 13.125 22.5234 13.2656C22.6016 13.401 22.7083 13.4922 22.8438 13.5391C22.9792 13.5859 23.138 13.6094 23.3203 13.6094C23.4505 13.6094 23.5755 13.6016 23.6953 13.5859C23.8151 13.5703 23.9115 13.5547 23.9844 13.5391L23.9922 14.9766C23.8359 15.0234 23.6536 15.0651 23.4453 15.1016C23.2422 15.138 23.0078 15.1562 22.7422 15.1562C22.3099 15.1562 21.9271 15.0807 21.5938 14.9297C21.2604 14.7734 21 14.5208 20.8125 14.1719C20.625 13.8229 20.5312 13.3594 20.5312 12.7812V4.47656ZM29.1016 15.1562C28.4766 15.1562 27.9115 15.0547 27.4062 14.8516C26.9062 14.6432 26.4792 14.3542 26.125 13.9844C25.776 13.6146 25.5078 13.1797 25.3203 12.6797C25.1328 12.1797 25.0391 11.6406 25.0391 11.0625V10.75C25.0391 10.0885 25.1354 9.48958 25.3281 8.95312C25.5208 8.41667 25.7891 7.95833 26.1328 7.57812C26.4766 7.19271 26.8828 6.89844 27.3516 6.69531C27.8203 6.49219 28.3281 6.39062 28.875 6.39062C29.4792 6.39062 30.0078 6.49219 30.4609 6.69531C30.9141 6.89844 31.2891 7.1849 31.5859 7.55469C31.888 7.91927 32.112 8.35417 32.2578 8.85938C32.4089 9.36458 32.4844 9.92188 32.4844 10.5312V11.3359H25.9531V9.98438H30.625V9.83594C30.6146 9.4974 30.5469 9.17969 30.4219 8.88281C30.3021 8.58594 30.1172 8.34635 29.8672 8.16406C29.6172 7.98177 29.2839 7.89062 28.8672 7.89062C28.5547 7.89062 28.276 7.95833 28.0312 8.09375C27.7917 8.22396 27.5911 8.41406 27.4297 8.66406C27.2682 8.91406 27.1432 9.21615 27.0547 9.57031C26.9714 9.91927 26.9297 10.3125 26.9297 10.75V11.0625C26.9297 11.4323 26.9792 11.776 27.0781 12.0938C27.1823 12.4062 27.3333 12.6797 27.5312 12.9141C27.7292 13.1484 27.9688 13.3333 28.25 13.4688C28.5312 13.599 28.8516 13.6641 29.2109 13.6641C29.6641 13.6641 30.0677 13.5729 30.4219 13.3906C30.776 13.2083 31.0833 12.9505 31.3438 12.6172L32.3359 13.5781C32.1536 13.8438 31.9167 14.099 31.625 14.3438C31.3333 14.5833 30.9766 14.7786 30.5547 14.9297C30.138 15.0807 29.6536 15.1562 29.1016 15.1562ZM39.3672 6.54688H41.0781V14.7656C41.0781 15.526 40.9167 16.1719 40.5938 16.7031C40.2708 17.2344 39.8203 17.638 39.2422 17.9141C38.6641 18.1953 37.9948 18.3359 37.2344 18.3359C36.9115 18.3359 36.5521 18.2891 36.1562 18.1953C35.7656 18.1016 35.3854 17.9505 35.0156 17.7422C34.651 17.5391 34.3464 17.2708 34.1016 16.9375L34.9844 15.8281C35.2865 16.1875 35.6198 16.4505 35.9844 16.6172C36.349 16.7839 36.7318 16.8672 37.1328 16.8672C37.5651 16.8672 37.9323 16.7865 38.2344 16.625C38.5417 16.4688 38.7786 16.237 38.9453 15.9297C39.112 15.6224 39.1953 15.2474 39.1953 14.8047V8.46094L39.3672 6.54688ZM33.625 10.8672V10.7031C33.625 10.0625 33.7031 9.47917 33.8594 8.95312C34.0156 8.42188 34.2396 7.96615 34.5312 7.58594C34.8229 7.20052 35.1771 6.90625 35.5938 6.70312C36.0104 6.49479 36.4818 6.39062 37.0078 6.39062C37.5547 6.39062 38.0208 6.48958 38.4062 6.6875C38.7969 6.88542 39.1224 7.16927 39.3828 7.53906C39.6432 7.90365 39.8464 8.34115 39.9922 8.85156C40.1432 9.35677 40.2552 9.91927 40.3281 10.5391V11.0625C40.2604 11.6667 40.1458 12.2188 39.9844 12.7188C39.8229 13.2188 39.6094 13.651 39.3438 14.0156C39.0781 14.3802 38.75 14.6615 38.3594 14.8594C37.974 15.0573 37.5182 15.1562 36.9922 15.1562C36.4766 15.1562 36.0104 15.0495 35.5938 14.8359C35.1823 14.6224 34.8281 14.3229 34.5312 13.9375C34.2396 13.5521 34.0156 13.099 33.8594 12.5781C33.7031 12.0521 33.625 11.4818 33.625 10.8672ZM35.5078 10.7031V10.8672C35.5078 11.2526 35.5443 11.612 35.6172 11.9453C35.6953 12.2786 35.8125 12.5729 35.9688 12.8281C36.1302 13.0781 36.3333 13.276 36.5781 13.4219C36.8281 13.5625 37.1224 13.6328 37.4609 13.6328C37.9036 13.6328 38.2656 13.5391 38.5469 13.3516C38.8333 13.1641 39.0521 12.9115 39.2031 12.5938C39.3594 12.2708 39.4688 11.9115 39.5312 11.5156V10.1016C39.5 9.79427 39.4349 9.50781 39.3359 9.24219C39.2422 8.97656 39.1146 8.74479 38.9531 8.54688C38.7917 8.34375 38.5885 8.1875 38.3438 8.07812C38.099 7.96354 37.8099 7.90625 37.4766 7.90625C37.138 7.90625 36.8438 7.97917 36.5938 8.125C36.3438 8.27083 36.138 8.47135 35.9766 8.72656C35.8203 8.98177 35.7031 9.27865 35.625 9.61719C35.5469 9.95573 35.5078 10.3177 35.5078 10.7031ZM42.6719 10.8672V10.6875C42.6719 10.0781 42.7604 9.51302 42.9375 8.99219C43.1146 8.46615 43.3698 8.01042 43.7031 7.625C44.0417 7.23438 44.4531 6.93229 44.9375 6.71875C45.4271 6.5 45.9792 6.39062 46.5938 6.39062C47.2135 6.39062 47.7656 6.5 48.25 6.71875C48.7396 6.93229 49.1536 7.23438 49.4922 7.625C49.8307 8.01042 50.0885 8.46615 50.2656 8.99219C50.4427 9.51302 50.5312 10.0781 50.5312 10.6875V10.8672C50.5312 11.4766 50.4427 12.0417 50.2656 12.5625C50.0885 13.0833 49.8307 13.5391 49.4922 13.9297C49.1536 14.3151 48.7422 14.6172 48.2578 14.8359C47.7734 15.0495 47.224 15.1562 46.6094 15.1562C45.9896 15.1562 45.4349 15.0495 44.9453 14.8359C44.4609 14.6172 44.0495 14.3151 43.7109 13.9297C43.3724 13.5391 43.1146 13.0833 42.9375 12.5625C42.7604 12.0417 42.6719 11.4766 42.6719 10.8672ZM44.5547 10.6875V10.8672C44.5547 11.2474 44.5938 11.6068 44.6719 11.9453C44.75 12.2839 44.8724 12.5807 45.0391 12.8359C45.2057 13.0911 45.4193 13.2917 45.6797 13.4375C45.9401 13.5833 46.25 13.6562 46.6094 13.6562C46.9583 13.6562 47.2604 13.5833 47.5156 13.4375C47.776 13.2917 47.9896 13.0911 48.1562 12.8359C48.3229 12.5807 48.4453 12.2839 48.5234 11.9453C48.6068 11.6068 48.6484 11.2474 48.6484 10.8672V10.6875C48.6484 10.3125 48.6068 9.95833 48.5234 9.625C48.4453 9.28646 48.3203 8.98698 48.1484 8.72656C47.9818 8.46615 47.7682 8.26302 47.5078 8.11719C47.2526 7.96615 46.9479 7.89062 46.5938 7.89062C46.2396 7.89062 45.9323 7.96615 45.6719 8.11719C45.4167 8.26302 45.2057 8.46615 45.0391 8.72656C44.8724 8.98698 44.75 9.28646 44.6719 9.625C44.5938 9.95833 44.5547 10.3125 44.5547 10.6875ZM54 8.15625V15H52.1172V6.54688H53.9141L54 8.15625ZM56.5859 6.49219L56.5703 8.24219C56.4557 8.22135 56.3307 8.20573 56.1953 8.19531C56.0651 8.1849 55.9349 8.17969 55.8047 8.17969C55.4818 8.17969 55.1979 8.22656 54.9531 8.32031C54.7083 8.40885 54.5026 8.53906 54.3359 8.71094C54.1745 8.8776 54.0495 9.08073 53.9609 9.32031C53.8724 9.5599 53.8203 9.82812 53.8047 10.125L53.375 10.1562C53.375 9.625 53.4271 9.13281 53.5312 8.67969C53.6354 8.22656 53.7917 7.82812 54 7.48438C54.2135 7.14062 54.4792 6.8724 54.7969 6.67969C55.1198 6.48698 55.4922 6.39062 55.9141 6.39062C56.0286 6.39062 56.151 6.40104 56.2812 6.42188C56.4167 6.44271 56.5182 6.46615 56.5859 6.49219ZM60.3594 14.0781L62.6562 6.54688H64.6719L61.2812 16.2891C61.2031 16.4974 61.1016 16.724 60.9766 16.9688C60.8516 17.2135 60.6875 17.4453 60.4844 17.6641C60.2865 17.888 60.0391 18.0677 59.7422 18.2031C59.4453 18.3438 59.0859 18.4141 58.6641 18.4141C58.4974 18.4141 58.3359 18.3984 58.1797 18.3672C58.0286 18.3411 57.8854 18.3125 57.75 18.2812L57.7422 16.8438C57.7943 16.849 57.8568 16.8542 57.9297 16.8594C58.0078 16.8646 58.0703 16.8672 58.1172 16.8672C58.4297 16.8672 58.6901 16.8281 58.8984 16.75C59.1068 16.6771 59.276 16.5573 59.4062 16.3906C59.5417 16.224 59.6562 16 59.75 15.7188L60.3594 14.0781ZM59.0625 6.54688L61.0703 12.875L61.4062 14.8594L60.1016 15.1953L57.0312 6.54688H59.0625Z" fill="white"/>
<path d="M83.5 16L74.4067 5.5L92.5933 5.5L83.5 16Z" fill="white"/>
</svg>
