<svg width="38" height="38" viewBox="0 0 38 38" fill="none" xmlns="http://www.w3.org/2000/svg">
<path fill-rule="evenodd" clip-rule="evenodd" d="M6.16663 0.666626H31.8333C34.8709 0.666626 37.3333 3.12906 37.3333 6.16663V24.5C37.3333 27.5375 34.8709 30 31.8333 30H30V35.5C29.9963 36.2401 29.5479 36.9054 28.8633 37.1866C28.6457 37.2893 28.4071 37.3395 28.1666 37.3333C27.6793 37.3361 27.2109 37.1448 26.865 36.8016L20.0816 30H6.16663C3.12906 30 0.666626 27.5375 0.666626 24.5V6.16663C0.666626 3.12906 3.12906 0.666626 6.16663 0.666626ZM31.8333 26.3333C32.8458 26.3333 33.6666 25.5125 33.6666 24.5V6.16663C33.6666 5.1541 32.8458 4.33329 31.8333 4.33329H6.16663C5.1541 4.33329 4.33329 5.1541 4.33329 6.16663V24.5C4.33329 25.5125 5.1541 26.3333 6.16663 26.3333H20.8333C21.3206 26.3305 21.789 26.5218 22.135 26.865L26.3333 31.0816V28.1666C26.3333 27.1541 27.1541 26.3333 28.1666 26.3333H31.8333Z" fill="#D3D3D4"/>
</svg>
