<svg width="47" height="59" viewBox="0 0 47 59" fill="none" xmlns="http://www.w3.org/2000/svg">
<path fill-rule="evenodd" clip-rule="evenodd" d="M42.3333 9.16675V34.8334C42.3333 37.871 39.8709 40.3334 36.8333 40.3334H11.1666C8.12906 40.3334 5.66663 37.871 5.66663 34.8334V9.16675C5.66663 6.12918 8.12906 3.66675 11.1666 3.66675H36.8333C39.8709 3.66675 42.3333 6.12918 42.3333 9.16675ZM35 22.0001C35 23.0126 34.1791 23.8334 33.1666 23.8334H25.8333V31.1667C25.8333 32.1793 25.0125 33.0001 24 33.0001C22.9874 33.0001 22.1666 32.1793 22.1666 31.1667V23.8334H14.8333C13.8208 23.8334 13 23.0126 13 22.0001C13 20.9876 13.8208 20.1667 14.8333 20.1667H22.1666V12.8334C22.1666 11.8209 22.9874 11.0001 24 11.0001C25.0125 11.0001 25.8333 11.8209 25.8333 12.8334V20.1667H33.1666C34.1791 20.1667 35 20.9876 35 22.0001ZM36.8333 7.33341C37.8458 7.33341 38.6666 8.15423 38.6666 9.16675V34.8334C38.6666 35.8459 37.8458 36.6667 36.8333 36.6667H11.1666C10.1541 36.6667 9.33329 35.8459 9.33329 34.8334V9.16675C9.33329 8.15423 10.1541 7.33341 11.1666 7.33341H36.8333Z" fill="white"/>
<path d="M8.1875 51.3828H9.6875C9.60938 52.1016 9.40365 52.7448 9.07031 53.3125C8.73698 53.8802 8.26562 54.3307 7.65625 54.6641C7.04688 54.9922 6.28646 55.1562 5.375 55.1562C4.70833 55.1562 4.10156 55.0312 3.55469 54.7812C3.01302 54.5312 2.54688 54.1771 2.15625 53.7188C1.76562 53.2552 1.46354 52.7005 1.25 52.0547C1.04167 51.4036 0.9375 50.6797 0.9375 49.8828V48.75C0.9375 47.9531 1.04167 47.2318 1.25 46.5859C1.46354 45.9349 1.76823 45.3776 2.16406 44.9141C2.5651 44.4505 3.04688 44.0938 3.60938 43.8438C4.17188 43.5938 4.80469 43.4688 5.50781 43.4688C6.36719 43.4688 7.09375 43.6302 7.6875 43.9531C8.28125 44.276 8.74219 44.724 9.07031 45.2969C9.40365 45.8646 9.60938 46.5234 9.6875 47.2734H8.1875C8.11458 46.7422 7.97917 46.2865 7.78125 45.9062C7.58333 45.5208 7.30208 45.224 6.9375 45.0156C6.57292 44.8073 6.09635 44.7031 5.50781 44.7031C5.0026 44.7031 4.55729 44.7995 4.17188 44.9922C3.79167 45.1849 3.47135 45.4583 3.21094 45.8125C2.95573 46.1667 2.76302 46.5911 2.63281 47.0859C2.5026 47.5807 2.4375 48.1302 2.4375 48.7344V49.8828C2.4375 50.4401 2.49479 50.9635 2.60938 51.4531C2.72917 51.9427 2.90885 52.3724 3.14844 52.7422C3.38802 53.112 3.69271 53.4036 4.0625 53.6172C4.43229 53.8255 4.86979 53.9297 5.375 53.9297C6.01562 53.9297 6.52604 53.8281 6.90625 53.625C7.28646 53.4219 7.57292 53.1302 7.76562 52.75C7.96354 52.3698 8.10417 51.9141 8.1875 51.3828ZM12.9688 47.875V55H11.5234V46.5469H12.9297L12.9688 47.875ZM15.6094 46.5L15.6016 47.8438C15.4818 47.8177 15.3672 47.8021 15.2578 47.7969C15.1536 47.7865 15.0339 47.7812 14.8984 47.7812C14.5651 47.7812 14.2708 47.8333 14.0156 47.9375C13.7604 48.0417 13.5443 48.1875 13.3672 48.375C13.1901 48.5625 13.0495 48.7865 12.9453 49.0469C12.8464 49.3021 12.7812 49.5833 12.75 49.8906L12.3438 50.125C12.3438 49.6146 12.3932 49.1354 12.4922 48.6875C12.5964 48.2396 12.7552 47.8438 12.9688 47.5C13.1823 47.151 13.4531 46.8802 13.7812 46.6875C14.1146 46.4896 14.5104 46.3906 14.9688 46.3906C15.0729 46.3906 15.1927 46.4036 15.3281 46.4297C15.4635 46.4505 15.5573 46.474 15.6094 46.5ZM20.2969 55.1562C19.7083 55.1562 19.1745 55.0573 18.6953 54.8594C18.2214 54.6562 17.8125 54.3724 17.4688 54.0078C17.1302 53.6432 16.8698 53.2109 16.6875 52.7109C16.5052 52.2109 16.4141 51.6641 16.4141 51.0703V50.7422C16.4141 50.0547 16.5156 49.4427 16.7188 48.9062C16.9219 48.3646 17.1979 47.9062 17.5469 47.5312C17.8958 47.1562 18.2917 46.8724 18.7344 46.6797C19.1771 46.487 19.6354 46.3906 20.1094 46.3906C20.7135 46.3906 21.2344 46.4948 21.6719 46.7031C22.1146 46.9115 22.4766 47.2031 22.7578 47.5781C23.0391 47.9479 23.2474 48.3854 23.3828 48.8906C23.5182 49.3906 23.5859 49.9375 23.5859 50.5312V51.1797H17.2734V50H22.1406V49.8906C22.1198 49.5156 22.0417 49.151 21.9062 48.7969C21.776 48.4427 21.5677 48.151 21.2812 47.9219C20.9948 47.6927 20.6042 47.5781 20.1094 47.5781C19.7812 47.5781 19.4792 47.6484 19.2031 47.7891C18.9271 47.9245 18.6901 48.1276 18.4922 48.3984C18.2943 48.6693 18.1406 49 18.0312 49.3906C17.9219 49.7812 17.8672 50.2318 17.8672 50.7422V51.0703C17.8672 51.4714 17.9219 51.849 18.0312 52.2031C18.1458 52.5521 18.3099 52.8594 18.5234 53.125C18.7422 53.3906 19.0052 53.599 19.3125 53.75C19.625 53.901 19.9792 53.9766 20.375 53.9766C20.8854 53.9766 21.3177 53.8724 21.6719 53.6641C22.026 53.4557 22.3359 53.1771 22.6016 52.8281L23.4766 53.5234C23.2943 53.7995 23.0625 54.0625 22.7812 54.3125C22.5 54.5625 22.1536 54.7656 21.7422 54.9219C21.3359 55.0781 20.8542 55.1562 20.2969 55.1562ZM30.2578 53.5547V49.2031C30.2578 48.8698 30.1901 48.5807 30.0547 48.3359C29.9245 48.0859 29.7266 47.8932 29.4609 47.7578C29.1953 47.6224 28.8672 47.5547 28.4766 47.5547C28.112 47.5547 27.7917 47.6172 27.5156 47.7422C27.2448 47.8672 27.0312 48.0312 26.875 48.2344C26.724 48.4375 26.6484 48.6562 26.6484 48.8906H25.2031C25.2031 48.5885 25.2812 48.2891 25.4375 47.9922C25.5938 47.6953 25.8177 47.4271 26.1094 47.1875C26.4062 46.9427 26.7604 46.75 27.1719 46.6094C27.5885 46.4635 28.0521 46.3906 28.5625 46.3906C29.1771 46.3906 29.7188 46.4948 30.1875 46.7031C30.6615 46.9115 31.0312 47.2266 31.2969 47.6484C31.5677 48.0651 31.7031 48.5885 31.7031 49.2188V53.1562C31.7031 53.4375 31.7266 53.737 31.7734 54.0547C31.8255 54.3724 31.901 54.6458 32 54.875V55H30.4922C30.4193 54.8333 30.362 54.612 30.3203 54.3359C30.2786 54.0547 30.2578 53.7943 30.2578 53.5547ZM30.5078 49.875L30.5234 50.8906H29.0625C28.651 50.8906 28.2839 50.9245 27.9609 50.9922C27.638 51.0547 27.3672 51.151 27.1484 51.2812C26.9297 51.4115 26.763 51.5755 26.6484 51.7734C26.5339 51.9661 26.4766 52.1927 26.4766 52.4531C26.4766 52.7188 26.5365 52.9609 26.6562 53.1797C26.776 53.3984 26.9557 53.5729 27.1953 53.7031C27.4401 53.8281 27.7396 53.8906 28.0938 53.8906C28.5365 53.8906 28.9271 53.7969 29.2656 53.6094C29.6042 53.4219 29.8724 53.1927 30.0703 52.9219C30.2734 52.651 30.3828 52.388 30.3984 52.1328L31.0156 52.8281C30.9792 53.0469 30.8802 53.2891 30.7188 53.5547C30.5573 53.8203 30.3411 54.0755 30.0703 54.3203C29.8047 54.5599 29.487 54.7604 29.1172 54.9219C28.7526 55.0781 28.3411 55.1562 27.8828 55.1562C27.3099 55.1562 26.8073 55.0443 26.375 54.8203C25.9479 54.5964 25.6146 54.2969 25.375 53.9219C25.1406 53.5417 25.0234 53.1172 25.0234 52.6484C25.0234 52.1953 25.112 51.7969 25.2891 51.4531C25.4661 51.1042 25.7214 50.8151 26.0547 50.5859C26.388 50.3516 26.7891 50.1745 27.2578 50.0547C27.7266 49.9349 28.25 49.875 28.8281 49.875H30.5078ZM37.5156 46.5469V47.6562H32.9453V46.5469H37.5156ZM34.4922 44.4922H35.9375V52.9062C35.9375 53.1927 35.9818 53.4089 36.0703 53.5547C36.1589 53.7005 36.2734 53.7969 36.4141 53.8438C36.5547 53.8906 36.7057 53.9141 36.8672 53.9141C36.987 53.9141 37.112 53.9036 37.2422 53.8828C37.3776 53.8568 37.4792 53.8359 37.5469 53.8203L37.5547 55C37.4401 55.0365 37.2891 55.0703 37.1016 55.1016C36.9193 55.138 36.6979 55.1562 36.4375 55.1562C36.0833 55.1562 35.7578 55.0859 35.4609 54.9453C35.1641 54.8047 34.9271 54.5703 34.75 54.2422C34.5781 53.9089 34.4922 53.4609 34.4922 52.8984V44.4922ZM42.7188 55.1562C42.1302 55.1562 41.5964 55.0573 41.1172 54.8594C40.6432 54.6562 40.2344 54.3724 39.8906 54.0078C39.5521 53.6432 39.2917 53.2109 39.1094 52.7109C38.9271 52.2109 38.8359 51.6641 38.8359 51.0703V50.7422C38.8359 50.0547 38.9375 49.4427 39.1406 48.9062C39.3438 48.3646 39.6198 47.9062 39.9688 47.5312C40.3177 47.1562 40.7135 46.8724 41.1562 46.6797C41.599 46.487 42.0573 46.3906 42.5312 46.3906C43.1354 46.3906 43.6562 46.4948 44.0938 46.7031C44.5365 46.9115 44.8984 47.2031 45.1797 47.5781C45.4609 47.9479 45.6693 48.3854 45.8047 48.8906C45.9401 49.3906 46.0078 49.9375 46.0078 50.5312V51.1797H39.6953V50H44.5625V49.8906C44.5417 49.5156 44.4635 49.151 44.3281 48.7969C44.1979 48.4427 43.9896 48.151 43.7031 47.9219C43.4167 47.6927 43.026 47.5781 42.5312 47.5781C42.2031 47.5781 41.901 47.6484 41.625 47.7891C41.349 47.9245 41.112 48.1276 40.9141 48.3984C40.7161 48.6693 40.5625 49 40.4531 49.3906C40.3438 49.7812 40.2891 50.2318 40.2891 50.7422V51.0703C40.2891 51.4714 40.3438 51.849 40.4531 52.2031C40.5677 52.5521 40.7318 52.8594 40.9453 53.125C41.1641 53.3906 41.4271 53.599 41.7344 53.75C42.0469 53.901 42.401 53.9766 42.7969 53.9766C43.3073 53.9766 43.7396 53.8724 44.0938 53.6641C44.4479 53.4557 44.7578 53.1771 45.0234 52.8281L45.8984 53.5234C45.7161 53.7995 45.4844 54.0625 45.2031 54.3125C44.9219 54.5625 44.5755 54.7656 44.1641 54.9219C43.7578 55.0781 43.276 55.1562 42.7188 55.1562Z" fill="white"/>
</svg>
