<svg width="38" height="38" viewBox="0 0 38 38" fill="none" xmlns="http://www.w3.org/2000/svg">
<path fill-rule="evenodd" clip-rule="evenodd" d="M31.8333 30.0001H24.5V34.1067C24.503 35.6537 23.5348 37.0361 22.0801 37.5621C20.6253 38.0881 18.997 37.6445 18.01 36.4534L12.95 30.3667C12.1234 29.3797 11.6693 28.1341 11.6666 26.8467V26.3334H2.49996C1.48744 26.3334 0.666626 25.5126 0.666626 24.5001V2.50006C0.666626 1.48753 1.48744 0.666725 2.49996 0.666725H31.8333C34.8709 0.666725 37.3333 3.12916 37.3333 6.16673V24.5001C37.3333 27.5376 34.8709 30.0001 31.8333 30.0001ZM4.33329 22.6667H11.6666V4.33339H4.33329V22.6667ZM31.8333 4.33339C32.8458 4.33339 33.6666 5.1542 33.6666 6.16672V24.5001C33.6666 25.5126 32.8458 26.3334 31.8333 26.3334H22.6666C21.6541 26.3334 20.8333 27.1542 20.8333 28.1667V34.1067L15.755 28.0201C15.4816 27.6902 15.3325 27.2751 15.3333 26.8467V4.33339H31.8333Z" fill="#D3D3D4"/>
</svg>
