<svg width="202" height="22" viewBox="0 0 202 22" fill="none" xmlns="http://www.w3.org/2000/svg">
<g clip-path="url(#clip0_707_4343)">
<path d="M21.6429 10.8214C21.6429 4.84491 16.7979 0 10.8214 0C4.84491 0 0 4.84491 0 10.8214C0 16.2226 3.95722 20.6996 9.13058 21.5114V13.9495H6.38295V10.8214H9.13058V8.43733C9.13058 5.72521 10.7462 4.22712 13.218 4.22712C14.4016 4.22712 15.6403 4.43848 15.6403 4.43848V7.10156H14.2758C12.9316 7.10156 12.5123 7.93578 12.5123 8.79241V10.8214H15.5135L15.0338 13.9495H12.5123V21.5114C17.6856 20.6996 21.6429 16.2226 21.6429 10.8214Z" fill="white"/>
</g>
<g clip-path="url(#clip1_707_4343)">
<path d="M51.8979 19.6139C60.063 19.6139 64.5302 12.8475 64.5302 6.98155C64.5302 6.79133 64.526 6.59689 64.5176 6.40667C65.3866 5.77821 66.1365 4.99978 66.7322 4.10796C65.9228 4.46804 65.0635 4.70321 64.1836 4.80543C65.1101 4.25009 65.8038 3.37767 66.1361 2.3499C65.2645 2.86643 64.3114 3.2308 63.3175 3.42739C62.6478 2.71584 61.7624 2.2447 60.7981 2.08683C59.8338 1.92896 58.8444 2.09314 57.9828 2.554C57.1212 3.01485 56.4354 3.74671 56.0314 4.63642C55.6275 5.52612 55.5279 6.52413 55.748 7.47613C53.9831 7.38756 52.2566 6.92911 50.6803 6.13048C49.1041 5.33186 47.7132 4.21089 46.598 2.84024C46.0311 3.81753 45.8577 4.97398 46.1128 6.07457C46.368 7.17515 47.0327 8.13727 47.9718 8.7654C47.2668 8.74302 46.5772 8.5532 45.9601 8.21165V8.2666C45.9594 9.29219 46.314 10.2864 46.9635 11.0801C47.613 11.8738 48.5173 12.4181 49.5227 12.6205C48.8696 12.7992 48.1842 12.8252 47.5195 12.6966C47.8032 13.5786 48.3552 14.3501 49.0984 14.9033C49.8417 15.4565 50.7391 15.7638 51.6654 15.7824C50.0928 17.0178 48.1501 17.6878 46.1503 17.6846C45.7957 17.6841 45.4414 17.6623 45.0893 17.6195C47.1209 18.9229 49.4842 19.6151 51.8979 19.6139Z" fill="white"/>
</g>
<g clip-path="url(#clip2_707_4343)">
<path d="M101 1.9487C103.891 1.9487 104.234 1.96138 105.371 2.01211C106.428 2.05861 106.998 2.23615 107.379 2.3841C107.882 2.57854 108.245 2.81526 108.622 3.19148C109.002 3.57192 109.234 3.93122 109.429 4.43425C109.577 4.81469 109.754 5.38958 109.801 6.44213C109.852 7.58345 109.864 7.92585 109.864 10.813C109.864 13.7043 109.852 14.0467 109.801 15.1838C109.754 16.2406 109.577 16.8113 109.429 17.1917C109.234 17.6947 108.998 18.0583 108.622 18.4345C108.241 18.8149 107.882 19.0474 107.379 19.2419C106.998 19.3898 106.423 19.5673 105.371 19.6138C104.23 19.6646 103.887 19.6772 101 19.6772C98.1087 19.6772 97.7663 19.6646 96.6292 19.6138C95.5724 19.5673 95.0017 19.3898 94.6213 19.2419C94.1183 19.0474 93.7547 18.8107 93.3785 18.4345C92.9981 18.054 92.7656 17.6947 92.5711 17.1917C92.4232 16.8113 92.2457 16.2364 92.1992 15.1838C92.1484 14.0425 92.1357 13.7001 92.1357 10.813C92.1357 7.92162 92.1484 7.57923 92.1992 6.44213C92.2457 5.38535 92.4232 4.81469 92.5711 4.43425C92.7656 3.93122 93.0023 3.56769 93.3785 3.19148C93.759 2.81103 94.1183 2.57854 94.6213 2.3841C95.0017 2.23615 95.5766 2.05861 96.6292 2.01211C97.7663 1.96138 98.1087 1.9487 101 1.9487ZM101 0C98.0622 0 97.6944 0.0126814 96.5404 0.0634068C95.3906 0.114132 94.6002 0.300125 93.9154 0.566434C93.201 0.845424 92.5965 1.21318 91.9963 1.81766C91.3918 2.41791 91.024 3.02239 90.745 3.73255C90.4787 4.42157 90.2927 5.20781 90.242 6.35759C90.1913 7.51582 90.1786 7.88358 90.1786 10.8214C90.1786 13.7593 90.1913 14.127 90.242 15.281C90.2927 16.4308 90.4787 17.2213 90.745 17.9061C91.024 18.6205 91.3918 19.2249 91.9963 19.8252C92.5965 20.4254 93.201 20.7974 93.9111 21.0722C94.6002 21.3385 95.3864 21.5245 96.5362 21.5752C97.6902 21.6259 98.0579 21.6386 100.996 21.6386C103.934 21.6386 104.301 21.6259 105.455 21.5752C106.605 21.5245 107.396 21.3385 108.08 21.0722C108.791 20.7974 109.395 20.4254 109.995 19.8252C110.596 19.2249 110.968 18.6205 111.242 17.9103C111.509 17.2213 111.695 16.435 111.745 15.2853C111.796 14.1313 111.809 13.7635 111.809 10.8257C111.809 7.88781 111.796 7.52005 111.745 6.36604C111.695 5.21627 111.509 4.4258 111.242 3.741C110.976 3.02239 110.608 2.41791 110.004 1.81766C109.404 1.21741 108.799 0.845424 108.089 0.570661C107.4 0.304353 106.614 0.118359 105.464 0.0676339C104.306 0.0126814 103.938 0 101 0Z" fill="white"/>
<path d="M101 5.26276C97.9311 5.26276 95.4413 7.75253 95.4413 10.8214C95.4413 13.8903 97.9311 16.3801 101 16.3801C104.069 16.3801 106.559 13.8903 106.559 10.8214C106.559 7.75253 104.069 5.26276 101 5.26276ZM101 14.4272C99.009 14.4272 97.3943 12.8124 97.3943 10.8214C97.3943 8.83045 99.009 7.21569 101 7.21569C102.991 7.21569 104.606 8.83045 104.606 10.8214C104.606 12.8124 102.991 14.4272 101 14.4272Z" fill="white"/>
<path d="M108.076 5.04291C108.076 5.76152 107.493 6.34063 106.779 6.34063C106.06 6.34063 105.481 5.75729 105.481 5.04291C105.481 4.32429 106.064 3.74518 106.779 3.74518C107.493 3.74518 108.076 4.32852 108.076 5.04291Z" fill="white"/>
</g>
<g clip-path="url(#clip3_707_4343)">
<path d="M155.309 0H136.866C135.982 0 135.268 0.697475 135.268 1.55981V20.0788C135.268 20.9412 135.982 21.6429 136.866 21.6429H155.309C156.192 21.6429 156.911 20.9412 156.911 20.083V1.55981C156.911 0.697475 156.192 0 155.309 0ZM141.689 18.4429H138.476V8.11184H141.689V18.4429ZM140.083 6.70421C139.051 6.70421 138.218 5.87147 138.218 4.84428C138.218 3.81709 139.051 2.98435 140.083 2.98435C141.11 2.98435 141.942 3.81709 141.942 4.84428C141.942 5.86724 141.11 6.70421 140.083 6.70421ZM153.711 18.4429H150.502V13.4211C150.502 12.2248 150.481 10.6819 148.833 10.6819C147.163 10.6819 146.909 11.9881 146.909 13.3366V18.4429H143.705V8.11184H146.783V9.5237H146.825C147.252 8.7121 148.3 7.85399 149.86 7.85399C153.111 7.85399 153.711 9.99291 153.711 12.7744V18.4429Z" fill="white"/>
</g>
<g clip-path="url(#clip4_707_4343)">
<path d="M201.784 6.49291C201.784 6.49291 201.573 5.00073 200.922 4.34553C200.098 3.4832 199.176 3.47897 198.754 3.42825C195.727 3.20843 191.183 3.20844 191.183 3.20844H191.174C191.174 3.20844 186.63 3.20843 183.604 3.42825C183.181 3.47897 182.259 3.4832 181.435 4.34553C180.784 5.00073 180.577 6.49291 180.577 6.49291C180.577 6.49291 180.357 8.24716 180.357 9.99719V11.6373C180.357 13.3873 180.573 15.1416 180.573 15.1416C180.573 15.1416 180.784 16.6338 181.431 17.289C182.255 18.1513 183.337 18.1217 183.819 18.2147C185.552 18.3796 191.179 18.4303 191.179 18.4303C191.179 18.4303 195.727 18.4218 198.754 18.2063C199.176 18.1555 200.098 18.1513 200.922 17.289C201.573 16.6338 201.784 15.1416 201.784 15.1416C201.784 15.1416 202 13.3916 202 11.6373V9.99719C202 8.24716 201.784 6.49291 201.784 6.49291ZM188.942 13.6283V7.54546L194.789 10.5974L188.942 13.6283Z" fill="white"/>
</g>
<defs>
<clipPath id="clip0_707_4343">
<rect width="21.6429" height="21.6429" fill="white"/>
</clipPath>
<clipPath id="clip1_707_4343">
<rect width="21.6429" height="21.6429" fill="white" transform="translate(45.0893)"/>
</clipPath>
<clipPath id="clip2_707_4343">
<rect width="21.6429" height="21.6429" fill="white" transform="translate(90.1786)"/>
</clipPath>
<clipPath id="clip3_707_4343">
<rect width="21.6429" height="21.6429" fill="white" transform="translate(135.268)"/>
</clipPath>
<clipPath id="clip4_707_4343">
<rect width="21.6429" height="21.6429" fill="white" transform="translate(180.357)"/>
</clipPath>
</defs>
</svg>
