<svg width="26" height="26" viewBox="0 0 26 26" fill="none" xmlns="http://www.w3.org/2000/svg">
<path fill-rule="evenodd" clip-rule="evenodd" d="M23.8333 20.5833C23.8333 22.3782 22.3783 23.8333 20.5833 23.8333H5.41666C3.62174 23.8333 2.16666 22.3782 2.16666 20.5833V5.41663C2.16666 3.6217 3.62174 2.16663 5.41666 2.16663H20.5833C22.3783 2.16663 23.8333 3.6217 23.8333 5.41663V20.5833ZM19.5 13C19.5 13.5983 19.015 14.0833 18.4167 14.0833H14.0833V18.4166C14.0833 19.0149 13.5983 19.5 13 19.5C12.4017 19.5 11.9167 19.0149 11.9167 18.4166V14.0833H7.58333C6.98502 14.0833 6.5 13.5983 6.5 13C6.5 12.4017 6.98502 11.9166 7.58333 11.9166H11.9167V7.58329C11.9167 6.98498 12.4017 6.49996 13 6.49996C13.5983 6.49996 14.0833 6.98498 14.0833 7.58329V11.9166H18.4167C19.015 11.9166 19.5 12.4017 19.5 13ZM20.5833 4.33329C21.1816 4.33329 21.6667 4.81832 21.6667 5.41663V20.5833C21.6667 21.1816 21.1816 21.6666 20.5833 21.6666H5.41666C4.81836 21.6666 4.33333 21.1816 4.33333 20.5833V5.41663C4.33333 4.81832 4.81836 4.33329 5.41666 4.33329H20.5833Z" fill="#8BEEDD"/>
</svg>
