<svg width="54" height="50" viewBox="0 0 54 50" fill="none" xmlns="http://www.w3.org/2000/svg">
<path d="M3.35938 33.7131V45.0881H1.01562V33.7131H3.35938ZM7.89062 38.5725V40.4006H2.71875V38.5725H7.89062ZM8.4375 33.7131V35.5491H2.71875V33.7131H8.4375ZM11.7031 38.4788V45.0881H9.45312V36.635H11.5703L11.7031 38.4788ZM14.25 36.5803L14.2109 38.6663C14.1016 38.6506 13.9688 38.6376 13.8125 38.6272C13.6615 38.6116 13.5234 38.6038 13.3984 38.6038C13.0807 38.6038 12.8047 38.6454 12.5703 38.7288C12.3411 38.8069 12.1484 38.9241 11.9922 39.0803C11.8411 39.2366 11.7266 39.4267 11.6484 39.6506C11.5755 39.8746 11.5339 40.1298 11.5234 40.4163L11.0703 40.2756C11.0703 39.7288 11.125 39.2262 11.2344 38.7678C11.3438 38.3043 11.5026 37.9006 11.7109 37.5569C11.9245 37.2131 12.1849 36.9475 12.4922 36.76C12.7995 36.5725 13.151 36.4788 13.5469 36.4788C13.6719 36.4788 13.7995 36.4892 13.9297 36.51C14.0599 36.5256 14.1667 36.5491 14.25 36.5803ZM17.6875 36.635V45.0881H15.4297V36.635H17.6875ZM15.2891 34.4319C15.2891 34.1038 15.4036 33.8329 15.6328 33.6194C15.862 33.4058 16.1693 33.2991 16.5547 33.2991C16.9349 33.2991 17.2396 33.4058 17.4688 33.6194C17.7031 33.8329 17.8203 34.1038 17.8203 34.4319C17.8203 34.76 17.7031 35.0308 17.4688 35.2444C17.2396 35.4579 16.9349 35.5647 16.5547 35.5647C16.1693 35.5647 15.862 35.4579 15.6328 35.2444C15.4036 35.0308 15.2891 34.76 15.2891 34.4319ZM23.4375 45.2444C22.7812 45.2444 22.1927 45.1402 21.6719 44.9319C21.151 44.7183 20.7083 44.4241 20.3438 44.0491C19.9844 43.6741 19.7083 43.2392 19.5156 42.7444C19.3229 42.2444 19.2266 41.7131 19.2266 41.1506V40.8381C19.2266 40.1975 19.3177 39.6116 19.5 39.0803C19.6823 38.5491 19.9427 38.0881 20.2812 37.6975C20.625 37.3069 21.0417 37.0074 21.5312 36.7991C22.0208 36.5855 22.5729 36.4788 23.1875 36.4788C23.7865 36.4788 24.3177 36.5777 24.7812 36.7756C25.2448 36.9736 25.6328 37.2548 25.9453 37.6194C26.263 37.984 26.5026 38.4215 26.6641 38.9319C26.8255 39.4371 26.9062 39.9996 26.9062 40.6194V41.5569H20.1875V40.0569H24.6953V39.885C24.6953 39.5725 24.638 39.2939 24.5234 39.0491C24.4141 38.7991 24.2474 38.6012 24.0234 38.4553C23.7995 38.3095 23.513 38.2366 23.1641 38.2366C22.8672 38.2366 22.612 38.3017 22.3984 38.4319C22.1849 38.5621 22.0104 38.7444 21.875 38.9788C21.7448 39.2131 21.6458 39.4892 21.5781 39.8069C21.5156 40.1194 21.4844 40.4631 21.4844 40.8381V41.1506C21.4844 41.4892 21.5312 41.8017 21.625 42.0881C21.724 42.3746 21.862 42.622 22.0391 42.8303C22.2214 43.0387 22.4401 43.2001 22.6953 43.3147C22.9557 43.4293 23.25 43.4866 23.5781 43.4866C23.9844 43.4866 24.362 43.4084 24.7109 43.2522C25.0651 43.0907 25.3698 42.8486 25.625 42.5256L26.7188 43.7131C26.5417 43.9683 26.2995 44.2131 25.9922 44.4475C25.6901 44.6819 25.3255 44.8746 24.8984 45.0256C24.4714 45.1715 23.9844 45.2444 23.4375 45.2444ZM30.3906 38.4397V45.0881H28.1406V36.635H30.25L30.3906 38.4397ZM30.0625 40.5647H29.4531C29.4531 39.9397 29.5339 39.3772 29.6953 38.8772C29.8568 38.372 30.0833 37.9423 30.375 37.5881C30.6667 37.2288 31.013 36.9553 31.4141 36.7678C31.8203 36.5751 32.2734 36.4788 32.7734 36.4788C33.1693 36.4788 33.5312 36.5361 33.8594 36.6506C34.1875 36.7652 34.4688 36.9475 34.7031 37.1975C34.9427 37.4475 35.125 37.7782 35.25 38.1897C35.3802 38.6012 35.4453 39.1038 35.4453 39.6975V45.0881H33.1797V39.6897C33.1797 39.3147 33.1276 39.023 33.0234 38.8147C32.9193 38.6064 32.7656 38.4605 32.5625 38.3772C32.3646 38.2887 32.1198 38.2444 31.8281 38.2444C31.526 38.2444 31.263 38.3043 31.0391 38.4241C30.8203 38.5439 30.638 38.7105 30.4922 38.9241C30.3516 39.1324 30.2448 39.3772 30.1719 39.6584C30.099 39.9397 30.0625 40.2418 30.0625 40.5647ZM42.1484 43.2444V33.0881H44.4141V45.0881H42.375L42.1484 43.2444ZM36.8047 40.9631V40.7991C36.8047 40.1532 36.8776 39.5673 37.0234 39.0413C37.1693 38.51 37.3828 38.0543 37.6641 37.6741C37.9453 37.2939 38.2917 36.9996 38.7031 36.7913C39.1146 36.5829 39.5833 36.4788 40.1094 36.4788C40.6042 36.4788 41.0365 36.5829 41.4062 36.7913C41.7812 36.9996 42.099 37.2965 42.3594 37.6819C42.625 38.0621 42.8385 38.5126 43 39.0334C43.1615 39.5491 43.2786 40.1142 43.3516 40.7288V41.0881C43.2786 41.6767 43.1615 42.2236 43 42.7288C42.8385 43.234 42.625 43.6767 42.3594 44.0569C42.099 44.4319 41.7812 44.7236 41.4062 44.9319C41.0312 45.1402 40.5938 45.2444 40.0938 45.2444C39.5677 45.2444 39.099 45.1376 38.6875 44.9241C38.2812 44.7105 37.9375 44.4111 37.6562 44.0256C37.3802 43.6402 37.1693 43.1871 37.0234 42.6663C36.8776 42.1454 36.8047 41.5777 36.8047 40.9631ZM39.0547 40.7991V40.9631C39.0547 41.3121 39.0807 41.6376 39.1328 41.9397C39.1901 42.2418 39.2812 42.51 39.4062 42.7444C39.5365 42.9736 39.7031 43.1532 39.9062 43.2834C40.1146 43.4084 40.3672 43.4709 40.6641 43.4709C41.0495 43.4709 41.3672 43.385 41.6172 43.2131C41.8672 43.0361 42.0573 42.7939 42.1875 42.4866C42.3229 42.1793 42.401 41.8251 42.4219 41.4241V40.4006C42.4062 40.0725 42.3594 39.7782 42.2812 39.5178C42.2083 39.2522 42.099 39.0256 41.9531 38.8381C41.8125 38.6506 41.6354 38.5048 41.4219 38.4006C41.2135 38.2965 40.9661 38.2444 40.6797 38.2444C40.388 38.2444 40.138 38.3121 39.9297 38.4475C39.7214 38.5777 39.5521 38.7574 39.4219 38.9866C39.2969 39.2157 39.2031 39.4866 39.1406 39.7991C39.0833 40.1064 39.0547 40.4397 39.0547 40.7991ZM50.7422 42.7522C50.7422 42.5907 50.6953 42.4449 50.6016 42.3147C50.5078 42.1845 50.3333 42.0647 50.0781 41.9553C49.8281 41.8407 49.4661 41.7366 48.9922 41.6428C48.5651 41.5491 48.1667 41.4319 47.7969 41.2913C47.4323 41.1454 47.1146 40.9709 46.8438 40.7678C46.5781 40.5647 46.3698 40.3251 46.2188 40.0491C46.0677 39.7678 45.9922 39.4475 45.9922 39.0881C45.9922 38.734 46.0677 38.4006 46.2188 38.0881C46.375 37.7756 46.5964 37.4996 46.8828 37.26C47.1745 37.0152 47.5286 36.8251 47.9453 36.6897C48.3672 36.5491 48.8411 36.4788 49.3672 36.4788C50.1016 36.4788 50.7318 36.5959 51.2578 36.8303C51.7891 37.0647 52.1953 37.3876 52.4766 37.7991C52.763 38.2053 52.9062 38.6689 52.9062 39.1897H50.6562C50.6562 38.9709 50.6094 38.7756 50.5156 38.6038C50.4271 38.4267 50.2865 38.2887 50.0938 38.1897C49.9062 38.0855 49.6615 38.0334 49.3594 38.0334C49.1094 38.0334 48.8932 38.0777 48.7109 38.1663C48.5286 38.2496 48.388 38.3642 48.2891 38.51C48.1953 38.6506 48.1484 38.8069 48.1484 38.9788C48.1484 39.109 48.1745 39.2262 48.2266 39.3303C48.2839 39.4293 48.375 39.5204 48.5 39.6038C48.625 39.6871 48.7865 39.7652 48.9844 39.8381C49.1875 39.9058 49.4375 39.9683 49.7344 40.0256C50.3438 40.1506 50.888 40.3147 51.3672 40.5178C51.8464 40.7157 52.2266 40.9866 52.5078 41.3303C52.7891 41.6689 52.9297 42.1142 52.9297 42.6663C52.9297 43.0413 52.8464 43.385 52.6797 43.6975C52.513 44.01 52.2734 44.2834 51.9609 44.5178C51.6484 44.747 51.2734 44.9267 50.8359 45.0569C50.4036 45.1819 49.9167 45.2444 49.375 45.2444C48.5885 45.2444 47.9219 45.1038 47.375 44.8225C46.8333 44.5413 46.4219 44.1845 46.1406 43.7522C45.8646 43.3147 45.7266 42.8668 45.7266 42.4084H47.8594C47.8698 42.7157 47.9479 42.9631 48.0938 43.1506C48.2448 43.3381 48.4349 43.4736 48.6641 43.5569C48.8984 43.6402 49.151 43.6819 49.4219 43.6819C49.7135 43.6819 49.9557 43.6428 50.1484 43.5647C50.3411 43.4814 50.487 43.372 50.5859 43.2366C50.6901 43.0959 50.7422 42.9345 50.7422 42.7522Z" fill="white"/>
<circle cx="17.5883" cy="10.3333" r="6.07843" fill="white"/>
<path d="M18.8039 16.4119H16.3726C10.3299 16.4119 5.4314 21.3104 5.4314 27.353C5.4314 28.0244 5.97568 28.5687 6.64708 28.5687H28.5294C29.2008 28.5687 29.7451 28.0244 29.7451 27.353C29.7451 21.3104 24.8466 16.4119 18.8039 16.4119Z" fill="white"/>
<circle cx="36.7354" cy="8.50983" r="6.07843" fill="white"/>
<path d="M37.951 14.5884H35.5197C29.477 14.5884 24.5785 19.4869 24.5785 25.5296C24.5785 26.201 25.1228 26.7452 25.7942 26.7452H47.6765C48.3479 26.7452 48.8922 26.201 48.8922 25.5296C48.8922 19.4869 43.9937 14.5884 37.951 14.5884Z" fill="white"/>
</svg>
