<svg width="34" height="34" viewBox="0 0 34 34" fill="none" xmlns="http://www.w3.org/2000/svg">
<path d="M16.9996 5.31091C14.688 5.31091 12.4284 5.99637 10.5064 7.28061C8.58439 8.56485 7.08637 10.3902 6.20177 12.5258C5.31717 14.6614 5.08572 17.0114 5.53669 19.2785C5.98765 21.5457 7.10078 23.6282 8.73531 25.2627C10.3698 26.8973 12.4523 28.0104 14.7195 28.4613C16.9867 28.9123 19.3366 28.6809 21.4722 27.7963C23.6078 26.9117 25.4332 25.4136 26.7174 23.4916C28.0017 21.5696 28.6871 19.31 28.6871 16.9984C28.6871 13.8987 27.4558 10.9259 25.2639 8.7341C23.0721 6.54227 20.0993 5.31091 16.9996 5.31091Z" stroke="#8BEEDD" stroke-width="3" stroke-miterlimit="10"/>
<path d="M13.2805 13.4319C13.2805 13.4319 13.3363 12.2697 14.5803 11.2688C15.3182 10.6743 16.2028 10.5023 16.9998 10.4904C17.7257 10.4811 18.374 10.6013 18.7618 10.7859C19.426 11.1021 20.7191 11.8738 20.7191 13.5149C20.7191 15.2418 19.59 16.0261 18.3036 16.8889C17.0171 17.7516 16.6677 18.6881 16.6677 19.6557" stroke="#8BEEDD" stroke-width="3" stroke-miterlimit="10" stroke-linecap="round"/>
<path d="M16.6088 24.4501C17.3459 24.4501 17.9434 23.8526 17.9434 23.1155C17.9434 22.3785 17.3459 21.781 16.6088 21.781C15.8718 21.781 15.2743 22.3785 15.2743 23.1155C15.2743 23.8526 15.8718 24.4501 16.6088 24.4501Z" fill="#8BEEDD"/>
</svg>
