<svg width="38" height="38" viewBox="0 0 38 38" fill="none" xmlns="http://www.w3.org/2000/svg">
<path fill-rule="evenodd" clip-rule="evenodd" d="M31.8333 7.99994H24.5V3.89328C24.503 2.34635 23.5348 0.963929 22.0801 0.437917C20.6253 -0.0880948 18.997 0.355471 18.01 1.54661L12.95 7.63328C12.1234 8.62026 11.6693 9.86591 11.6666 11.1533V11.6666H2.49996C1.48744 11.6666 0.666626 12.4874 0.666626 13.4999V35.4999C0.666626 36.5125 1.48744 37.3333 2.49996 37.3333H31.8333C34.8709 37.3333 37.3333 34.8708 37.3333 31.8333V13.4999C37.3333 10.4624 34.8709 7.99994 31.8333 7.99994ZM4.33329 15.3333H11.6666V33.6666H4.33329V15.3333ZM31.8333 33.6666C32.8458 33.6666 33.6666 32.8458 33.6666 31.8333V13.4999C33.6666 12.4874 32.8458 11.6666 31.8333 11.6666H22.6666C21.6541 11.6666 20.8333 10.8458 20.8333 9.83328V3.89328L15.755 9.97994C15.4816 10.3098 15.3325 10.7249 15.3333 11.1533V33.6666H31.8333Z" fill="#D3D3D4"/>
</svg>
