<svg width="35" height="26" viewBox="0 0 35 26" fill="none" xmlns="http://www.w3.org/2000/svg">
<path fill-rule="evenodd" clip-rule="evenodd" d="M31.789 0C32.8377 0 33.769 0.484636 34.355 1.23425L17.3361 14.9936L0.468746 1.4841C1.03271 0.594074 2.04989 0 3.21101 0H31.789ZM0 22.9048V3.92564L12.1028 13.619L0.0249488 23.2925C0.00848613 23.1655 0 23.0361 0 22.9048ZM1.10687 25.2429C1.6704 25.7145 2.40612 26 3.21101 26H31.789C32.4808 26 33.1215 25.7891 33.6457 25.4304L20.7851 15.033L18.4724 16.9027C17.8183 17.4315 16.8655 17.4336 16.2089 16.9078L13.8613 15.0275L1.10687 25.2429ZM22.534 13.619L34.9122 23.6265C34.9696 23.3949 35 23.1533 35 22.9048V3.54065L22.534 13.619Z" fill="white"/>
</svg>
