<svg width="161" height="286" viewBox="0 0 161 286" fill="none" xmlns="http://www.w3.org/2000/svg">
<path d="M83.568 285.33C56.808 285.33 29.498 278.8 2.40801 265.91L0.328015 264.92L0.138015 262.63C-0.201985 258.61 0.0880146 254.29 0.988015 249.78L1.00801 249.69L1.74801 247.2C3.44801 240.65 6.04801 235.12 7.69801 231.99L7.59801 231.49C7.09801 228.99 8.21801 224.79 21.358 214.46C26.088 209.37 36.748 182.8 52.608 123.29C52.768 122.69 52.918 122.11 53.068 121.56C43.698 120.08 34.398 117.82 25.398 114.84L24.228 114.45L23.478 113.47C21.418 110.77 18.768 104.64 21.928 98.82L22.058 98.58L25.408 95.13L26.098 95.04C26.098 95.04 31.338 94.31 38.398 92.78L41.618 92.07C46.028 91.04 50.178 89.91 53.948 88.69L54.108 88.64C40.468 79.83 32.158 64.71 32.158 48.2V48.07C32.228 21.56 53.838 0 80.348 0C81.518 0 82.708 0.0400011 83.888 0.130001C107.778 1.84 126.928 21.15 128.448 45.03C129.568 62.59 121.088 79.25 106.598 88.64L106.848 88.72C111.258 90.15 116.188 91.46 121.488 92.62L124.348 93.23C130.258 94.45 134.438 95.04 134.618 95.06L135.288 95.15L138.648 98.55L138.778 98.8C141.968 104.63 139.308 110.77 137.248 113.48L136.498 114.46L135.328 114.85C126.368 117.82 117.118 120.07 107.788 121.55C123.708 181.78 134.748 209.24 139.468 214.55C152.428 224.81 153.648 228.87 153.118 231.49L152.938 232.38C154.548 235.5 156.988 240.8 158.628 247.02L159.438 249.8L159.458 249.89C160.338 254.35 160.618 258.63 160.288 262.59L160.128 264.47L158.578 265.54C157.408 266.35 129.408 285.32 83.598 285.32L83.568 285.33Z" fill="#090B0E"/>
<path d="M147.708 231.25C147.708 231.25 153.298 240.17 155.508 251.33C148.188 255.98 88.778 290.73 4.90796 251.23C7.14796 240.14 12.688 231.29 12.688 231.29L147.718 231.25H147.708Z" fill="white"/>
<path d="M156.278 262.26C156.278 262.26 94.218 305.15 4.12804 262.3C3.78804 258.3 4.16804 254.31 4.91804 250.57C88.788 290.08 148.198 255.32 155.518 250.67C156.248 254.36 156.618 258.31 156.278 262.26Z" fill="#252747"/>
<path d="M24.028 217.45C24.028 217.45 10.918 227.72 11.518 230.7C11.518 230.7 77.748 265.56 149.168 230.7C149.768 227.72 136.658 217.45 136.658 217.45" fill="#252747"/>
<path d="M136.658 217.46C76.4681 241.8 24.0281 217.46 24.0281 217.46C33.4681 208.01 50.1681 147.96 56.4681 124.33C58.0381 118.43 58.9681 114.8 58.9681 114.8H101.718C101.718 114.8 102.648 118.43 104.218 124.33C110.518 147.95 127.228 208.01 136.668 217.46H136.658Z" fill="white"/>
<path d="M136.858 217.66C134.318 218.69 131.798 219.62 129.288 220.49C124.438 210.66 108.198 174.85 96.828 115H101.908C101.908 115 125.058 205.85 136.858 217.66Z" fill="#252747"/>
<path d="M101.708 114.8C101.708 114.8 102.638 118.43 104.208 124.33C96.388 125.39 88.508 125.93 80.588 125.93H80.078C72.158 125.93 64.268 125.39 56.448 124.33C58.018 118.43 58.948 114.8 58.948 114.8H101.698H101.708Z" fill="#252747"/>
<path d="M120.878 96.5698L115.548 105.51C106.548 107.78 94.5681 109.72 80.3481 109.54C47.4581 109.96 26.6281 99.0098 26.6281 99.0098C26.6281 99.0098 32.2581 98.2298 39.8081 96.5698C52.9881 99.9298 66.4781 101.62 80.0881 101.62H80.5781C94.1881 101.62 107.688 99.9298 120.858 96.5698H120.878Z" fill="#727272"/>
<path d="M134.038 111.05C114.408 117.56 96.068 119.71 80.348 119.69C64.628 119.71 46.278 117.56 26.658 111.05C26.658 111.05 21.708 104.57 26.658 99.02C46.288 105.53 64.628 107.68 80.348 107.66C96.068 107.68 114.418 105.53 134.038 99.02C138.988 104.57 134.038 111.05 134.038 111.05Z" fill="white"/>
<path d="M134.068 99.02C134.068 99.02 127.368 102.54 115.558 105.52C106.558 107.79 94.5781 109.73 80.3581 109.55C47.4681 109.97 26.6381 99.02 26.6381 99.02C26.6381 99.02 32.2681 98.24 39.8181 96.58C44.6981 95.52 50.3781 94.09 55.8681 92.27C58.6281 91.35 61.3481 90.34 63.8781 89.22C65.8281 88.37 67.6681 87.45 69.3581 86.48H91.3381C93.0181 87.45 94.8681 88.37 96.8181 89.22C99.3481 90.34 102.068 91.36 104.828 92.27C110.318 94.09 115.998 95.52 120.878 96.58C128.438 98.24 134.058 99.02 134.058 99.02H134.068Z" fill="#252747"/>
<path d="M124.538 48.19C124.538 66.77 113.058 82.68 96.818 89.21C91.718 91.25 86.168 92.38 80.348 92.38C74.528 92.38 68.968 91.26 63.888 89.21C47.638 82.68 36.168 66.78 36.168 48.19C36.168 23.79 55.948 4 80.358 4C104.768 4 124.558 23.78 124.558 48.19H124.538Z" fill="white"/>
</svg>
