<?xml version="1.0" encoding="utf-8"?>
<!-- Generator: Adobe Illustrator 27.9.0, SVG Export Plug-In . SVG Version: 6.00 Build 0)  -->
<svg version="1.1" id="Layer_1" xmlns="http://www.w3.org/2000/svg" xmlns:xlink="http://www.w3.org/1999/xlink" x="0px" y="0px"
	 viewBox="0 0 402.41 116.26" style="enable-background:new 0 0 402.41 116.26;" xml:space="preserve">
<style type="text/css">
	.st0{fill:#BDEFE6;}
	.st1{fill:#077C5E;}
	.st2{fill:#F9F7F7;}
	.st3{fill:#9FA5BF;}
	.st4{fill:#727272;}
	.st5{fill:#44454C;}
	.st6{fill:none;stroke:#727272;stroke-miterlimit:10;}
	.st7{fill:#9E9E9E;}
	.st8{fill:#8C8B8B;}
	.st9{fill:#4EB7A3;}
	.st10{fill:none;stroke:#000000;stroke-miterlimit:10;}
	.st11{fill:#E6E6E6;}
	.st12{fill:none;stroke:#000000;}
	.st13{fill:#FFFFFF;}
</style>
<g>
	<path class="st13" d="M47.78,74.75v2.41c-0.03,5.09-0.9,8.99-2.63,11.7c-1.73,2.71-4.18,4.06-7.38,4.06
		c-3.36,0-5.89-1.38-7.59-4.13c-1.7-2.76-2.55-6.71-2.55-11.84l0.04-3.85c0.36-9.5,3.71-14.25,10.04-14.25
		c3.24,0,5.73,1.35,7.46,4.05C46.91,65.6,47.78,69.55,47.78,74.75z"/>
	<path class="st13" d="M41.29,42v0.29c0.37,0.01,0.73,0.01,1.1,0.01l0.09-0.15C42.08,42.08,41.69,42.03,41.29,42z"/>
	<path class="st13" d="M387.55,72.17c1.74-0.42,3.33-1.36,4.54-2.71c1.68-1.87,2.48-4.36,2.22-6.85c-0.39-3.6-1.59-6.91-3.55-9.86
		c-2.4-3.61-5.76-6.4-9.99-8.3c-3.9-1.75-8.3-2.64-13.07-2.64c-4.77,0-9.17,0.79-13.1,2.36c-4.31,1.72-7.74,4.24-10.23,7.5
		c-0.09,0.11-0.17,0.23-0.26,0.35c-2.36-3.26-5.54-5.8-9.47-7.57c-3.9-1.75-8.3-2.64-13.08-2.64c-4.76,0-9.16,0.79-13.1,2.36
		c-2.15,0.86-4.08,1.92-5.79,3.17c-1.43-2.85-4.38-4.82-7.79-4.82h-33.11c-2.17,0-4.16,0.8-5.68,2.12c-1.6-1.33-3.65-2.12-5.89-2.12
		h-8.44c-5.1,0-9.24,4.14-9.24,9.24v11.56h-4.25V51.76c0-5.1-4.15-9.24-9.24-9.24h-8.51c-4.26,0-7.86,2.9-8.91,6.83
		c-0.29-0.28-0.59-0.55-0.9-0.82c-5.19-4.49-11.93-6.77-20.03-6.77c-5.76,0-10.96,1.43-15.46,4.24c-1.18,0.74-2.29,1.56-3.33,2.46
		c-0.98-3.43-4.15-5.94-7.89-5.94H119.9c-1.9,0-3.65,0.65-5.04,1.74c-1.4-1.09-3.16-1.74-5.07-1.74H99.4
		c-4.56,0-8.27,3.71-8.27,8.27v4.35l-4.8-8.45c-1.47-2.58-4.23-4.18-7.19-4.18H68.24c-4.56,0-8.27,3.71-8.27,8.27v0.85
		c-0.7-0.82-1.45-1.59-2.24-2.32v-0.3c0.11-0.23,0.24-0.48,0.37-0.74c0.06-0.14,0.12-0.27,0.19-0.42c0.13-0.28,0.26-0.57,0.4-0.87
		c0.75-1.67,1.6-3.72,2.33-5.94c2.66-8.03,2.43-14.07-0.67-17.96c-0.62-0.78-1.33-1.44-2.15-2.01c-1.79-1.25-4.05-2-6.75-2.24
		c-3.48-0.31-7.66,0.21-12.73,1.56c0.3-0.19,0.58-0.42,0.83-0.67c0.75-0.78,1.22-1.84,1.22-3.01c0-0.73-0.18-1.42-0.5-2.02
		C40,14.2,39.64,13.76,39.2,13.4c-0.26-0.22-0.55-0.41-0.86-0.56c-0.2-0.1-0.41-0.19-0.63-0.25c0.01-0.02,0.01-0.04,0.01-0.05
		l0.28-2.94c0.01-0.14,0.15-0.24,0.29-0.22l1.99,0.39c0.09,0.01,0.17-0.01,0.22-0.06c0.04-0.04,0.07-0.11,0.07-0.18V7.19
		c0-0.06-0.02-0.13-0.07-0.17c-0.05-0.06-0.13-0.09-0.22-0.07l-1.74,0.34c-0.09,0.02-0.17-0.01-0.22-0.06
		c-0.05-0.05-0.08-0.12-0.07-0.2l0.27-2.78c0.01-0.15-0.1-0.27-0.25-0.27h-3.62c-0.15,0-0.27,0.12-0.25,0.27l0.27,2.79
		c0.02,0.17-0.13,0.3-0.29,0.27l-1.78-0.35c-0.09-0.01-0.18,0.01-0.23,0.07c-0.04,0.04-0.07,0.11-0.07,0.17v2.35
		c0,0.07,0.03,0.14,0.07,0.18c0.06,0.05,0.14,0.08,0.23,0.06l2.02-0.39c0.14-0.03,0.28,0.07,0.29,0.22l0.28,2.94l0.01,0.04
		c-0.22,0.06-0.44,0.15-0.65,0.25c-0.31,0.15-0.6,0.34-0.86,0.55c-0.09,0.07-0.17,0.15-0.26,0.23c-0.82,0.79-1.33,1.89-1.33,3.12
		c0,0.59,0.11,1.15,0.33,1.65c0.09,0.22,0.19,0.42,0.32,0.62c0.06,0.09,0.11,0.19,0.19,0.28c0.01,0.03,0.03,0.06,0.05,0.08
		c0.11,0.14,0.22,0.27,0.33,0.39c0.13,0.13,0.27,0.25,0.4,0.37c0.14,0.11,0.29,0.22,0.45,0.32c-0.52-0.14-1.02-0.27-1.52-0.39
		c-1.49-0.37-2.91-0.65-4.24-0.86c-0.5-0.08-0.98-0.14-1.44-0.19c-2.02-0.24-3.86-0.29-5.54-0.14c-2.71,0.24-4.97,0.99-6.76,2.24
		c-0.81,0.57-1.53,1.23-2.15,2.01c-3.09,3.89-3.32,9.93-0.67,17.96c0.19,0.57,0.38,1.12,0.58,1.66c0.09,0.27,0.19,0.53,0.29,0.8
		c0.6,1.56,1.23,2.99,1.78,4.18c0.09,0.19,0.18,0.38,0.27,0.56c0.01,0.01,0.01,0.03,0.02,0.04c0.09,0.18,0.17,0.34,0.24,0.5
		c0.29,0.61,0.87,1.32,1.26,1.83c-2.05,2.16-3.78,4.68-5.14,7.52C8.8,63.04,7.61,68.65,7.61,74.84v3.09
		c0.12,6.01,1.4,11.47,3.82,16.23c2.55,5.03,6.19,8.98,10.82,11.73c4.56,2.71,9.79,4.08,15.54,4.08c5.78,0,11.05-1.42,15.66-4.23
		c2.48-1.51,4.66-3.35,6.52-5.53v0.76c0,4.56,3.71,8.27,8.27,8.27h10.44c4.56,0,8.28-3.72,8.28-8.27v-4.4l4.84,8.49
		c1.47,2.58,4.23,4.18,7.19,4.18h10.82c1.91,0,3.67-0.65,5.07-1.74c1.38,1.09,3.14,1.74,5.04,1.74h34.05c3.7,0,6.85-2.47,7.86-5.85
		c5.03,4.36,11.42,6.57,19.04,6.57c5.22,0,10-1,14.2-2.99c2.5-1.18,4.71-2.66,6.62-4.42c1.11,3.86,4.66,6.7,8.88,6.7h8.51
		c5.09,0,9.24-4.15,9.24-9.24V87.38h4.25v12.65c0,5.09,4.14,9.24,9.24,9.24h8.44c2.23,0,4.28-0.8,5.89-2.13
		c1.52,1.33,3.51,2.13,5.68,2.13h33.04c3.4,0,6.35-1.96,7.78-4.81c1.43,0.99,2.99,1.87,4.71,2.63c4.35,1.92,9.21,2.9,14.44,2.9
		c7.59,0,13.84-1.81,18.54-5.38c1.59-1.2,2.94-2.55,4.07-4.05c2.35,2.71,5.39,4.9,9.08,6.53c4.35,1.92,9.2,2.9,14.44,2.9
		c7.59,0,13.83-1.81,18.55-5.38c5.25-3.98,8.02-9.69,8.02-16.52C394.45,83.46,393.12,77.36,387.55,72.17z M47.07,24.84
		c0.09-0.01,0.18-0.01,0.27-0.02c0.44-0.04,0.87-0.07,1.28-0.09c0.29-0.01,0.57-0.02,0.85-0.02c0.75,0,1.46,0.04,2.1,0.13
		c0.32,0.04,0.62,0.1,0.9,0.17c0.29,0.06,0.57,0.14,0.83,0.23c0.27,0.09,0.51,0.19,0.74,0.29c0.11,0.06,0.23,0.11,0.34,0.17
		c0.22,0.12,0.42,0.25,0.6,0.39c0.09,0.07,0.18,0.14,0.27,0.22c0.17,0.15,0.33,0.32,0.47,0.49c0.2,0.25,0.38,0.54,0.53,0.85
		c0.08,0.16,0.14,0.32,0.21,0.5c0.13,0.34,0.23,0.72,0.3,1.11c0.19,0.98,0.22,2.13,0.1,3.42c-0.02,0.25-0.05,0.51-0.09,0.77
		c-0.02,0.2-0.05,0.41-0.09,0.62c-0.01,0.06-0.01,0.11-0.03,0.17c-0.22-1.3-0.66-2.58-1.41-3.77c-1.78-2.81-4.97-4.64-9.51-5.46
		C46.18,24.94,46.63,24.89,47.07,24.84z M41.29,28.31c5.53,0.24,9.15,1.64,10.75,4.18c1.88,2.98,0.67,7.27-0.38,9.88l-1.89-3.26
		c-0.57-1-1.61-1.6-2.77-1.6c-1.16,0-2.2,0.6-2.77,1.6l-1.76,3.04l-0.09,0.15c-0.37-0.01-0.73-0.01-1.1-0.01V28.31z M31.57,28.31
		V42.3c-0.31,0.01-0.62,0.01-0.93,0.01l-1.85-3.2c-0.57-1-1.61-1.6-2.77-1.6c-1.16,0-2.2,0.6-2.77,1.6l-2.03,3.52h-0.04
		c-1.09-2.6-2.43-7.06-0.49-10.14C22.31,29.93,25.96,28.53,31.57,28.31z M16.15,33.88c-0.04-0.24-0.07-0.49-0.09-0.72
		c-0.02-0.14-0.04-0.27-0.04-0.41c-0.02-0.16-0.03-0.32-0.04-0.47c-0.01-0.12-0.01-0.25-0.02-0.37c-0.04-0.98,0.01-1.87,0.16-2.66
		c0.07-0.4,0.17-0.77,0.3-1.11c0.06-0.17,0.13-0.34,0.21-0.5c0.15-0.32,0.33-0.6,0.53-0.85c0.14-0.17,0.29-0.34,0.47-0.49
		c0.09-0.08,0.17-0.15,0.27-0.22c0.19-0.14,0.39-0.27,0.6-0.39c0.11-0.06,0.22-0.11,0.34-0.17c0.23-0.11,0.48-0.21,0.74-0.29
		c0.27-0.09,0.54-0.17,0.83-0.23c0.29-0.06,0.6-0.12,0.91-0.17c0.8-0.11,1.68-0.15,2.65-0.12c0.15,0.01,0.31,0.01,0.47,0.02
		c0.36,0.01,0.73,0.04,1.11,0.08c0.34,0.03,0.69,0.06,1.04,0.11c0.17,0.01,0.33,0.04,0.5,0.06c-4.57,0.82-7.78,2.65-9.57,5.48
		C16.81,31.55,16.38,32.7,16.15,33.88z M60.63,76.97c0,2.47-0.22,4.8-0.67,7c-0.47,2.34-1.2,4.53-2.17,6.56
		c-1.89,3.94-4.59,6.96-8.08,9.09c-3.49,2.12-7.46,3.19-11.93,3.19s-8.42-1.03-11.87-3.08c-3.46-2.05-6.15-4.98-8.08-8.8
		c-1.93-3.81-2.94-8.19-3.04-13.13v-2.95c0-5.13,0.94-9.66,2.83-13.58c1.88-3.93,4.58-6.95,8.1-9.09c3.52-2.14,7.51-3.2,12-3.2
		c4.44,0,8.4,1.05,11.88,3.16c3.47,2.11,6.18,5.12,8.11,9.01c1.03,2.07,1.78,4.3,2.27,6.7c0.43,2.1,0.65,4.34,0.67,6.7V76.97z
		 M110.9,100.99c0,0.6-0.5,1.1-1.1,1.1H98.97c-0.39,0-0.76-0.22-0.95-0.56l-16.2-28.43c-0.56-0.98-2.05-0.59-2.05,0.54v27.36
		c0,0.6-0.49,1.1-1.1,1.1H68.24c-0.6,0-1.1-0.5-1.1-1.1V50.79c0-0.61,0.5-1.1,1.1-1.1h10.89c0.39,0,0.76,0.21,0.95,0.55l16.16,28.43
		c0.56,0.98,2.05,0.58,2.05-0.55V50.79c0-0.61,0.5-1.1,1.1-1.1h10.4c0.6,0,1.1,0.49,1.1,1.1V100.99z M155.05,58.42
		c0,0.51-0.36,0.93-0.85,1h-0.01c-0.06,0.01-0.11,0.02-0.17,0.02h-21.49c-0.57,0-1.02,0.45-1.02,1.02v9c0,0.57,0.45,1.03,1.02,1.03
		h17.82c0.57,0,1.02,0.45,1.02,1.02v7.31c0,0.57-0.45,1.02-1.02,1.02h-17.82c-0.57,0-1.02,0.46-1.02,1.03v10.48
		c0,0.56,0.45,1.02,1.02,1.02h21.42c0.05,0,0.1,0,0.14,0.01c0.5,0.06,0.88,0.5,0.88,1v7.67c0,0.57-0.46,1.03-1.03,1.03H119.9
		c-0.56,0-1.02-0.46-1.02-1.03V50.71c0-0.57,0.46-1.02,1.02-1.02h34.12c0.57,0,1.03,0.45,1.03,1.02V58.42z M173.59,89.31
		c1.41,2.4,3.82,3.6,7.26,3.6c2.9,0,5.12-0.68,6.65-2.05c1.36-1.21,2.15-3.04,2.38-5.49c0.06-0.57,0.54-1.02,1.12-1.02h10.3
		c0.67,0.01,1.18,0.59,1.11,1.26c-0.17,1.74-0.55,3.37-1.11,4.89c-0.45,1.24-1.04,2.4-1.74,3.51c-1.8,2.8-4.33,4.96-7.58,6.49
		c-3.25,1.54-6.96,2.3-11.13,2.3c-6.89,0-12.31-2.24-16.27-6.73c-0.93-1.06-1.76-2.22-2.47-3.49c-0.79-1.39-1.44-2.91-1.96-4.56
		c-1.01-3.18-1.51-6.83-1.51-10.95v-2.59c0-3.95,0.53-7.52,1.59-10.71l0.01-0.01c0.31-0.95,0.67-1.87,1.08-2.75
		c0.26-0.56,0.53-1.1,0.83-1.61c1.72-3.08,4.01-5.51,6.88-7.31c3.36-2.1,7.24-3.15,11.66-3.15c6.36,0,11.47,1.68,15.33,5.02
		c2.4,2.08,4.17,4.66,5.27,7.73c0.54,1.49,0.93,3.09,1.16,4.81c0.09,0.68-0.42,1.3-1.11,1.3h-10.27c-0.58,0-1.07-0.45-1.12-1.03
		c-0.22-2.66-1.01-4.61-2.35-5.85c-1.51-1.39-3.81-2.09-6.91-2.09c-3.14,0-5.44,1.18-6.9,3.53c-1.46,2.35-2.23,6.1-2.3,11.26v3.7
		C171.49,82.92,172.19,86.91,173.59,89.31z M252.27,100.03c0,1.13-0.93,2.06-2.06,2.06h-8.44c-1.13,0-2.06-0.93-2.06-2.06V82.27
		c0-1.14-0.93-2.07-2.06-2.07h-14.48c-1.14,0-2.06,0.93-2.06,2.07v17.76c0,1.13-0.93,2.06-2.06,2.06h-8.51
		c-1.13,0-2.06-0.93-2.06-2.06V51.76c0-1.14,0.93-2.06,2.06-2.06h8.51c1.13,0,2.06,0.92,2.06,2.06v16.67c0,1.14,0.92,2.07,2.06,2.07
		h14.48c1.13,0,2.06-0.93,2.06-2.07V51.76c0-1.14,0.93-2.06,2.06-2.06h8.44c1.13,0,2.06,0.92,2.06,2.06V100.03z M296.42,57.92
		c0,0.84-0.69,1.53-1.53,1.53h-20.48c-0.84,0-1.52,0.68-1.52,1.52v7.99c0,0.84,0.68,1.53,1.52,1.53h16.81
		c0.85,0,1.53,0.68,1.53,1.52v6.31c0,0.84-0.68,1.52-1.53,1.52h-16.81c-0.84,0-1.52,0.69-1.52,1.53v9.47c0,0.85,0.68,1.53,1.52,1.53
		h20.41c0.84,0,1.53,0.68,1.53,1.53v6.66c0,0.85-0.69,1.53-1.53,1.53h-33.04c-0.84,0-1.52-0.68-1.52-1.53V51.22
		c0-0.84,0.68-1.52,1.52-1.52h33.11c0.84,0,1.53,0.68,1.53,1.52V57.92z M340.19,93.43c-0.85,2.14-2.25,3.95-4.23,5.45
		c-3.46,2.61-8.2,3.92-14.22,3.92c-4.24,0-8.09-0.76-11.53-2.28c-2.78-1.24-5.02-2.84-6.69-4.82c-0.39-0.47-0.75-0.95-1.08-1.45
		c-1.43-2.18-2.27-4.64-2.53-7.36c0-0.01-0.01-0.03,0-0.04c0,0,0,0,0-0.01c-0.06-0.93,0.66-1.74,1.61-1.74h9.44
		c0.82,0,1.52,0.61,1.6,1.43c0.22,2.09,0.92,3.69,2.11,4.78c1.45,1.33,3.81,2,7.07,2c2.09,0,3.74-0.44,4.95-1.35
		c1.21-0.9,1.82-2.16,1.82-3.8c0-1.84-0.65-3.29-1.96-4.31c-1.31-1.03-3.61-2.1-6.9-3.2c-3.29-1.11-5.97-2.17-8.06-3.21
		c-6.79-3.33-10.18-7.92-10.18-13.74c0-0.01,0-0.01,0-0.01c0-2.68,0.73-5.07,2.18-7.17c0.11-0.17,0.24-0.33,0.36-0.5
		c1.69-2.22,4.08-3.95,7.18-5.18c3.09-1.23,6.57-1.85,10.44-1.85c3.77,0,7.14,0.67,10.13,2.01c2.99,1.35,5.3,3.26,6.96,5.74
		c0.85,1.28,1.49,2.66,1.89,4.13c0,0.01,0,0.01,0,0.01c0.24,0.85,0.41,1.71,0.5,2.61c0.06,0.58-0.22,1.11-0.65,1.44
		c-0.27,0.19-0.6,0.32-0.97,0.32h-9.39c-0.79,0-1.47-0.57-1.59-1.35c-0.22-1.49-0.85-2.71-1.86-3.62c-1.31-1.18-3.08-1.77-5.31-1.77
		c-2.25,0-4.03,0.5-5.34,1.49c-1.31,1-1.97,2.26-1.97,3.8c0,1.34,0.72,2.56,2.16,3.65c1.44,1.09,3.97,2.22,7.59,3.38
		c3.62,1.16,6.6,2.42,8.92,3.76c3.64,2.1,6.11,4.7,7.41,7.82c0.73,1.74,1.09,3.62,1.09,5.68C341.15,90.05,340.83,91.83,340.19,93.43
		z M382.09,98.89c-3.45,2.61-8.19,3.92-14.21,3.92c-4.25,0-8.1-0.76-11.53-2.28c-3.45-1.53-6.04-3.61-7.77-6.27
		c-0.28-0.42-0.53-0.85-0.76-1.3c-0.96-1.81-1.54-3.79-1.76-5.94c-0.1-1.02,0.7-1.92,1.72-1.92H357c0.88,0,1.61,0.65,1.71,1.52
		c0.22,2.05,0.93,3.61,2.1,4.69c1.45,1.33,3.8,2,7.07,2c2.09,0,3.73-0.44,4.94-1.35c1.21-0.9,1.82-2.16,1.82-3.8
		c0-1.84-0.65-3.29-1.96-4.31c-1.31-1.03-3.6-2.1-6.89-3.2c-3.29-1.11-5.97-2.17-8.06-3.21c-5.72-2.81-9.03-6.5-9.93-11.08v-0.01
		c-0.17-0.85-0.26-1.74-0.26-2.66c0-1.06,0.11-2.07,0.33-3.04v-0.01c0.39-1.69,1.13-3.23,2.2-4.64c1.69-2.22,4.08-3.95,7.18-5.18
		c3.09-1.23,6.57-1.85,10.44-1.85c3.76,0,7.14,0.67,10.13,2.01c2.99,1.35,5.31,3.26,6.96,5.74c1.33,1.99,2.12,4.21,2.38,6.65
		c0.11,1-0.71,1.87-1.71,1.87h-9.19c-0.84,0-1.56-0.61-1.69-1.44c-0.24-1.46-0.85-2.63-1.85-3.53c-1.31-1.18-3.08-1.77-5.3-1.77
		c-2.26,0-4.04,0.5-5.35,1.49c-1.31,1-1.96,2.26-1.96,3.8c0,1.34,0.72,2.56,2.16,3.65c1.44,1.09,3.97,2.22,7.59,3.38
		c3.62,1.16,6.6,2.42,8.92,3.76c5.66,3.27,8.49,7.77,8.49,13.49C387.27,92.67,385.54,96.27,382.09,98.89z"/>
</g>
</svg>
