<svg width="27" height="27" viewBox="0 0 27 27" fill="none" xmlns="http://www.w3.org/2000/svg">
<path d="M24.8299 5.77251C24.8183 5.58717 24.7449 5.41109 24.6213 5.27248C24.4977 5.13386 24.3312 5.04074 24.1484 5.00802C19.6895 4.20881 17.8132 3.58374 13.7866 1.77177C13.3844 1.62198 13.1351 1.62458 12.75 1.77177C8.72331 3.58581 6.84707 4.20777 2.38815 5.00802C2.20536 5.04074 2.03883 5.13386 1.91525 5.27248C1.79167 5.41109 1.7182 5.58717 1.70659 5.77251C1.50705 8.93931 1.93153 11.8884 2.96917 14.5395C3.81763 16.7013 5.0746 18.6794 6.67137 20.3657C8.9866 22.824 11.5537 24.2592 12.8775 24.8023C13.1285 24.9047 13.4096 24.9047 13.6606 24.8023C15.06 24.2364 17.5318 22.8421 19.8652 20.3647C21.4618 18.6787 22.7188 16.7009 23.5674 14.5395C24.605 11.8889 25.0295 8.93931 24.8299 5.77251Z" fill="#111220"/>
<ellipse cx="10.6972" cy="10.8922" rx="2.06636" ry="2.04085" fill="#8BEEDD"/>
<path d="M11.1104 12.933H10.2839C8.22971 12.933 6.56445 14.5777 6.56445 16.6065C6.56445 16.8319 6.74948 17.0147 6.97772 17.0147H14.4166C14.6449 17.0147 14.8299 16.8319 14.8299 16.6065C14.8299 14.5777 13.1646 12.933 11.1104 12.933Z" fill="#8BEEDD"/>
<circle cx="15.7789" cy="9.86177" r="2.09187" fill="#8BEEDD"/>
<path d="M16.1973 11.9536H15.3606C13.281 11.9536 11.5952 13.6394 11.5952 15.719C11.5952 15.95 11.7825 16.1374 12.0136 16.1374H19.5443C19.7754 16.1374 19.9627 15.95 19.9627 15.719C19.9627 13.6394 18.2769 11.9536 16.1973 11.9536Z" fill="#8BEEDD"/>
</svg>
