<svg width="32" height="32" viewBox="0 0 32 32" fill="none" xmlns="http://www.w3.org/2000/svg">
<path d="M26.2375 15.2244H26.0561C25.311 11.8945 22.3374 9.39379 18.7872 9.39379H16.5198V8.56455C17.647 8.16289 18.4633 7.09394 18.4633 5.83065C18.4633 4.22399 17.1547 2.91535 15.548 2.91535C13.9414 2.91535 12.6327 4.22399 12.6327 5.83065C12.6327 7.09394 13.449 8.16289 14.5762 8.56455V9.39379H12.3088C8.7586 9.39379 5.78499 11.8945 5.03997 15.2244H4.85857C3.78963 15.2244 2.91504 16.099 2.91504 17.1679V19.1115C2.91504 20.1804 3.78963 21.055 4.85857 21.055H5.21489C5.97935 23.4391 7.90992 25.2919 10.3329 25.9657C10.1515 26.3479 10.0413 26.7625 10.0413 27.2095C10.0413 27.7472 10.4754 28.1813 11.0131 28.1813H20.0829C20.6206 28.1813 21.0547 27.7472 21.0547 27.2095C21.0547 26.7625 20.9446 26.3414 20.7632 25.9657C23.1861 25.2984 25.1167 23.4391 25.8811 21.055H26.2375C27.3064 21.055 28.181 20.1804 28.181 19.1115V17.1679C28.181 16.099 27.3064 15.2244 26.2375 15.2244ZM15.548 4.85888C16.0857 4.85888 16.5198 5.29294 16.5198 5.83065C16.5198 6.36836 16.0857 6.80241 15.548 6.80241C15.0103 6.80241 14.5762 6.36836 14.5762 5.83065C14.5762 5.29294 15.0103 4.85888 15.548 4.85888ZM18.7872 24.2942H12.3088C9.2704 24.2942 6.80211 21.8259 6.80211 18.7875V16.844C6.80211 13.8056 9.2704 11.3373 12.3088 11.3373H18.7872C21.8256 11.3373 24.2939 13.8056 24.2939 16.844V18.7875C24.2939 21.8259 21.8256 24.2942 18.7872 24.2942Z" fill="#111220"/>
<path d="M11.9849 13.9287C10.9159 13.9287 10.0413 14.8033 10.0413 15.8722V17.8158C10.0413 18.8847 10.9159 19.7593 11.9849 19.7593C13.0538 19.7593 13.9284 18.8847 13.9284 17.8158V15.8722C13.9284 14.8033 13.0538 13.9287 11.9849 13.9287Z" fill="#111220"/>
<path d="M19.1112 13.9287C18.0422 13.9287 17.1676 14.8033 17.1676 15.8722V17.8158C17.1676 18.8847 18.0422 19.7593 19.1112 19.7593C20.1801 19.7593 21.0547 18.8847 21.0547 17.8158V15.8722C21.0547 14.8033 20.1801 13.9287 19.1112 13.9287Z" fill="#111220"/>
<path d="M8.76508 4.80705L10.7086 5.4549C10.8123 5.48729 10.9159 5.50672 11.0131 5.50672C11.4212 5.50672 11.797 5.24759 11.933 4.83944C12.1015 4.32765 11.8294 3.77698 11.3176 3.60854L9.37405 2.9607C8.86873 2.79226 8.31806 3.06435 8.14315 3.57615C7.96823 4.08794 8.2468 4.63861 8.7586 4.80705H8.76508Z" fill="#111220"/>
<path d="M9.06957 8.74595C9.17322 8.74595 9.27688 8.73299 9.37405 8.69412L11.3176 8.04628C11.8294 7.87784 12.1015 7.32717 11.933 6.81537C11.7646 6.30357 11.2139 6.03148 10.7021 6.19992L8.7586 6.84776C8.2468 7.0162 7.97471 7.56687 8.14315 8.07867C8.27919 8.48681 8.65494 8.74595 9.06309 8.74595H9.06957Z" fill="#111220"/>
<path d="M20.0829 5.50672C20.1866 5.50672 20.2902 5.49377 20.3874 5.4549L22.331 4.80705C22.8427 4.63861 23.1148 4.08794 22.9464 3.57615C22.778 3.06435 22.2273 2.79226 21.7155 2.9607L19.772 3.60854C19.2602 3.77698 18.9881 4.32765 19.1565 4.83944C19.2926 5.24759 19.6683 5.50672 20.0764 5.50672H20.0829Z" fill="#111220"/>
<path d="M19.7784 8.04628L21.722 8.69412C21.8256 8.72651 21.9293 8.74595 22.0265 8.74595C22.4346 8.74595 22.8104 8.48681 22.9464 8.07867C23.1148 7.56687 22.8427 7.0162 22.331 6.84776L20.3874 6.19992C19.8821 6.03148 19.3249 6.30357 19.1565 6.81537C18.9881 7.32717 19.2602 7.87784 19.772 8.04628H19.7784Z" fill="#111220"/>
</svg>
