<svg width="24" height="24" viewBox="0 0 24 24" fill="none" xmlns="http://www.w3.org/2000/svg">
<path d="M21.6889 5.04222C21.6788 4.88033 21.6146 4.72652 21.5067 4.60545C21.3987 4.48437 21.2533 4.40302 21.0936 4.37445C17.1987 3.67634 15.5599 3.13034 12.0426 1.5476C11.6913 1.41676 11.4735 1.41902 11.1371 1.5476C7.61988 3.13215 5.98099 3.67543 2.08616 4.37445C1.92648 4.40302 1.78102 4.48437 1.67308 4.60545C1.56513 4.72652 1.50095 4.88033 1.49082 5.04222C1.31651 7.8084 1.6873 10.3844 2.59367 12.7002C3.33479 14.5885 4.43275 16.3163 5.82752 17.7893C7.84986 19.9366 10.0922 21.1902 11.2485 21.6647C11.4678 21.7541 11.7133 21.7541 11.9326 21.6647C13.155 21.1703 15.314 19.9524 17.3522 17.7884C18.7469 16.3157 19.8448 14.5881 20.5861 12.7002C21.4924 10.3849 21.8632 7.8084 21.6889 5.04222Z" fill="#8BEEDD"/>
<ellipse cx="9.34374" cy="9.51424" rx="1.80495" ry="1.78267" fill="#161616"/>
<path d="M9.70472 11.2969H8.98274C7.18841 11.2969 5.73383 12.7335 5.73383 14.5057C5.73383 14.7026 5.89545 14.8622 6.09482 14.8622H12.5926C12.792 14.8622 12.9536 14.7026 12.9536 14.5057C12.9536 12.7335 11.499 11.2969 9.70472 11.2969Z" fill="#161616"/>
<ellipse cx="13.7827" cy="8.6141" rx="1.82723" ry="1.82723" fill="#161616"/>
<path d="M14.1481 10.4413H13.4172C11.6007 10.4413 10.1282 11.9138 10.1282 13.7303C10.1282 13.9321 10.2918 14.0958 10.4937 14.0958H17.0717C17.2735 14.0958 17.4371 13.9321 17.4371 13.7303C17.4371 11.9138 15.9646 10.4413 14.1481 10.4413Z" fill="#161616"/>
</svg>
