<svg width="29" height="29" viewBox="0 0 29 29" fill="none" xmlns="http://www.w3.org/2000/svg">
<path d="M27.5152 18.3978L27.1098 18.1704C25.841 17.4581 24.6757 17.6013 23.8497 17.9589C23.4559 18.1293 23.1491 18.3423 22.9405 18.5112C22.8349 18.5968 22.7506 18.6742 22.6889 18.7344C22.658 18.7645 22.6325 18.7907 22.6125 18.8118C22.6025 18.8223 22.5939 18.8316 22.5866 18.8396L22.5768 18.8504L22.5726 18.8551L22.5708 18.8572L22.5699 18.8582C22.5694 18.8587 22.569 18.8591 23.5053 19.6873L22.569 18.8591L22.2553 19.2138V19.6873V26.9223C22.2553 27.3793 21.8849 27.75 21.4271 27.75H14.8005C14.7859 27.722 14.7718 27.6928 14.7587 27.6625C14.7058 27.5404 14.6614 27.3916 14.6694 27.209C15.2521 27.0709 15.6769 26.6561 15.8945 26.2127C16.1607 25.6703 16.1868 24.9689 15.8278 24.3561L15.8278 24.356C15.0423 23.015 13.4247 22.2553 11.7524 22.2553C10.0801 22.2553 8.4627 23.0151 7.67777 24.3565C7.31911 24.9692 7.34526 25.6704 7.61134 26.2127C7.8289 26.6561 8.25364 27.0708 8.83622 27.2089C8.84433 27.3917 8.7999 27.5405 8.74706 27.6626C8.73397 27.6929 8.71993 27.7221 8.70532 27.75H2.0782C1.6204 27.75 1.25 27.3793 1.25 26.9223V19.928C1.27796 19.9134 1.30717 19.8993 1.33748 19.8862C1.45959 19.8334 1.6084 19.7889 1.79103 19.7969C1.9291 20.3796 2.34386 20.8044 2.78731 21.022C3.32971 21.2882 4.03112 21.3143 4.64394 20.9554L4.64399 20.9553C5.985 20.1698 6.74466 18.5522 6.74466 16.8799C6.74466 15.2078 5.98509 13.5906 4.64394 12.8055C4.03112 12.4466 3.32971 12.4727 2.78731 12.7389C2.34391 12.9564 1.9292 13.3812 1.79109 13.9637C1.60833 13.9718 1.45948 13.9274 1.33737 13.8746C1.3071 13.8615 1.27793 13.8475 1.25 13.8328V7.57285C1.25 7.11546 1.62081 6.74466 2.0782 6.74466H9.31326H9.78685L10.1415 6.43084L9.31326 5.49466C10.1415 6.43084 10.142 6.43042 10.1425 6.42998L10.1435 6.42909L10.1456 6.42721L10.1503 6.42306L10.1611 6.41321C10.169 6.40596 10.1783 6.39732 10.1889 6.38732C10.21 6.36735 10.2361 6.34181 10.2663 6.31089C10.3265 6.24925 10.4038 6.16496 10.4894 6.05934C10.6583 5.85069 10.8711 5.54383 11.0415 5.15005C11.3989 4.32405 11.5418 3.1589 10.8296 1.89015L10.6021 1.48466C10.9124 1.34403 11.2997 1.25 11.7524 1.25C12.2051 1.25 12.5926 1.34403 12.9031 1.48471L12.6756 1.89039C11.9638 3.1592 12.1069 4.32429 12.4643 5.15017C12.6348 5.54391 12.8476 5.85074 13.0165 6.05937C13.102 6.16498 13.1794 6.24926 13.2396 6.3109C13.2697 6.34182 13.2959 6.36736 13.317 6.38733C13.3275 6.39733 13.3368 6.40596 13.3447 6.41321L13.3556 6.42306L13.3602 6.42721L13.3623 6.42909L13.3633 6.42998C13.3638 6.43042 13.3643 6.43084 14.1926 5.49466L13.3643 6.43084L13.719 6.74466H14.1926H21.4271C21.8845 6.74466 22.2553 7.11546 22.2553 7.57285V14.8079V15.2816L22.5693 15.6364L23.5053 14.8079C22.5693 15.6364 22.5697 15.6369 22.5702 15.6373L22.5711 15.6383L22.5729 15.6405L22.5771 15.6451L22.5869 15.6559C22.5942 15.6639 22.6028 15.6732 22.6128 15.6837C22.6328 15.7048 22.6583 15.7309 22.6893 15.7611C22.7509 15.8212 22.8352 15.8986 22.9408 15.9841C23.1495 16.1529 23.4563 16.3657 23.8501 16.536C24.6759 16.8933 25.8409 17.0362 27.1096 16.3244L27.5155 16.0968C27.656 16.407 27.75 16.7941 27.75 17.2466C27.75 17.6995 27.6559 18.0871 27.5152 18.3978Z" stroke="#8BEEDD" stroke-width="2.5"/>
</svg>
