<svg width="29" height="29" viewBox="0 0 29 29" fill="none" xmlns="http://www.w3.org/2000/svg">
<path fill-rule="evenodd" clip-rule="evenodd" d="M19.7079 18.0042L26.2329 24.5172C26.4617 24.744 26.5904 25.0529 26.5904 25.3751C26.5904 25.6973 26.4617 26.0061 26.2329 26.233C26.0061 26.4618 25.6972 26.5904 25.375 26.5904C25.0528 26.5904 24.744 26.4618 24.5171 26.233L18.0042 19.708C16.3155 21.0335 14.2301 21.7528 12.0834 21.7501C6.7446 21.7501 2.41669 17.4222 2.41669 12.0834C2.41669 6.74466 6.7446 2.41675 12.0834 2.41675C17.4221 2.41675 21.75 6.74466 21.75 12.0834C21.7527 14.2302 21.0335 16.3155 19.7079 18.0042ZM12.0834 4.83341C8.07929 4.83341 4.83335 8.07935 4.83335 12.0834C4.83335 16.0875 8.07929 19.3334 12.0834 19.3334C16.0874 19.3334 19.3334 16.0875 19.3334 12.0834C19.3334 8.07935 16.0874 4.83341 12.0834 4.83341Z" fill="white"/>
</svg>
