<svg width="31" height="30" viewBox="0 0 31 30" fill="none" xmlns="http://www.w3.org/2000/svg">
<path d="M19.3735 10.3124V7.96863C19.3735 7.34703 19.1184 6.75089 18.6642 6.31135C18.21 5.87181 17.594 5.62488 16.9516 5.62488H5.32665C4.68432 5.62488 4.06831 5.87181 3.61412 6.31135C3.15993 6.75089 2.90477 7.34703 2.90477 7.96863V22.0311C2.90477 22.6527 3.15993 23.2489 3.61412 23.6884C4.06831 24.128 4.68432 24.3749 5.32665 24.3749H16.9516C17.594 24.3749 18.21 24.128 18.6642 23.6884C19.1184 23.2489 19.3735 22.6527 19.3735 22.0311V19.6874" stroke="#8BEEDD" stroke-width="3" stroke-linecap="round" stroke-linejoin="round"/>
<path d="M23.2496 10.3126L28.094 15.0008L23.2496 19.689" stroke="#8BEEDD" stroke-width="3" stroke-linecap="round" stroke-linejoin="round"/>
<path d="M11.5641 15.0002H28.0934" stroke="#8BEEDD" stroke-width="3" stroke-linecap="round" stroke-linejoin="round"/>
</svg>
