<svg width="26" height="26" viewBox="0 0 26 26" fill="none" xmlns="http://www.w3.org/2000/svg">
<path fill-rule="evenodd" clip-rule="evenodd" d="M7.36667 2.79495L21.3308 9.86911C23.4 10.9199 23.7033 12.3499 23.7033 13.0866C23.7033 13.8233 23.4 15.1666 21.3308 16.2499L7.36667 23.3024C6.77791 23.6116 6.12491 23.7786 5.46 23.7899C4.89558 23.7981 4.34016 23.6479 3.85667 23.3566C2.7956 22.6279 2.20156 21.3903 2.29667 20.1066V6.04495C2.19702 4.7604 2.79209 3.52067 3.85667 2.79495C4.94501 2.17675 6.27833 2.17675 7.36667 2.79495ZM6.39167 21.3416L20.345 14.2674C21.0817 13.8883 21.5367 13.4116 21.5367 13.0324C21.5367 12.6533 21.0817 12.1766 20.345 11.8083L6.34834 4.73411C6.06222 4.57619 5.74322 4.48717 5.41667 4.47411C5.26473 4.47831 5.11606 4.5192 4.98334 4.59328C4.59291 4.93288 4.39782 5.44499 4.46334 5.95828V20.1066C4.39782 20.6199 4.59291 21.132 4.98334 21.4716C5.44489 21.6671 5.9737 21.6183 6.39167 21.3416Z" fill="#8BEEDD"/>
</svg>
