<svg width="35" height="35" viewBox="0 0 35 35" fill="none" xmlns="http://www.w3.org/2000/svg">
<path d="M32.7489 7.61349C32.7336 7.36904 32.6367 7.13681 32.4737 6.95399C32.3107 6.77116 32.0911 6.64834 31.85 6.60519C25.969 5.55109 23.4944 4.72668 18.1836 2.33683C17.6531 2.13927 17.3243 2.14269 16.8164 2.33683C11.5055 4.72941 9.03093 5.54972 3.14997 6.60519C2.90887 6.64834 2.68924 6.77116 2.52625 6.95399C2.36326 7.13681 2.26635 7.36904 2.25104 7.61349C1.98786 11.7903 2.54772 15.6799 3.91628 19.1765C5.03533 22.0277 6.69318 24.6367 8.79919 26.8608C11.8528 30.103 15.2386 31.9959 16.9845 32.7123C17.3156 32.8474 17.6864 32.8474 18.0175 32.7123C19.8632 31.9658 23.1232 30.127 26.2008 26.8594C28.3066 24.6357 29.9645 22.0272 31.0837 19.1765C32.4522 15.6806 33.0121 11.7903 32.7489 7.61349Z" fill="white"/>
<ellipse cx="14.1084" cy="14.366" rx="2.72536" ry="2.69172" fill="#252747"/>
<path d="M14.6535 17.0576H13.5634C10.8541 17.0576 8.65771 19.2268 8.65771 21.9027C8.65771 22.2 8.90175 22.441 9.20279 22.441H19.0141C19.3151 22.441 19.5592 22.2 19.5592 21.9027C19.5592 19.2268 17.3628 17.0576 14.6535 17.0576Z" fill="#252747"/>
<ellipse cx="20.811" cy="13.0071" rx="2.75901" ry="2.75901" fill="#252747"/>
<path d="M21.3628 15.7661H20.2592C17.5164 15.7661 15.293 17.9896 15.293 20.7323C15.293 21.0371 15.54 21.2841 15.8448 21.2841H25.7772C26.082 21.2841 26.329 21.0371 26.329 20.7323C26.329 17.9896 24.1056 15.7661 21.3628 15.7661Z" fill="#252747"/>
</svg>
