<svg width="60" height="47" viewBox="0 0 60 47" fill="none" xmlns="http://www.w3.org/2000/svg">
<g clip-path="url(#clip0_703_1105)">
<path d="M33.7664 8.33148L33.7176 8.22611C33.6874 8.16073 33.6096 8.13321 33.5444 8.16338L31.5413 9.08967C31.4752 9.1202 31.3979 9.09155 31.368 9.02694L30.9892 8.20776C30.959 8.14238 30.8812 8.11486 30.8159 8.14503L29.9888 8.52754C29.9227 8.55807 29.8945 8.63557 29.9243 8.70018L30.3032 9.51935C30.3334 9.58473 30.304 9.66182 30.2387 9.69199L6.36603 20.7313C6.30002 20.7619 6.22266 20.7332 6.19278 20.6686L5.81397 19.8494C5.78374 19.7841 5.70596 19.7565 5.64072 19.7867L4.81353 20.1692C4.74751 20.1998 4.71924 20.2772 4.74911 20.3419L5.12792 21.161C5.15815 21.2264 5.12875 21.3035 5.06351 21.3337L3.10001 22.2416C3.03399 22.2722 3.00571 22.3497 3.03559 22.4143L5.84126 28.4816C5.87149 28.5469 5.84208 28.624 5.77684 28.6542C5.73024 28.6757 5.69997 28.7224 5.70089 28.7733L5.71131 32.7002C5.71151 32.7944 5.81024 32.857 5.89646 32.8171L7.16326 32.2313C7.23782 32.1969 7.32582 32.2383 7.3445 32.3175L10.4705 45.0308C10.49 45.1096 10.5772 45.1514 10.6518 45.1169L11.1155 44.9025C11.1815 44.872 11.2588 44.9006 11.2887 44.9652L11.9386 46.3705C11.9688 46.4359 12.0466 46.4634 12.1118 46.4333L18.2384 43.6001C18.3045 43.5696 18.3327 43.4921 18.3029 43.4275L17.653 42.0222C17.6228 41.9568 17.6522 41.8798 17.7174 41.8496L18.5889 41.4466C18.6456 41.4204 18.676 41.3578 18.6613 41.2973L16.7357 33.4655C16.721 33.4051 16.7514 33.3425 16.8081 33.3163L24.2552 29.8726C24.3212 29.8421 24.3494 29.7646 24.3196 29.7L22.3163 25.3679C22.2861 25.3026 22.3155 25.2255 22.3807 25.1953L38.0655 17.9423C38.1315 17.9118 38.1598 17.8343 38.1299 17.7697L35.9022 12.9523C35.872 12.8869 35.9014 12.8098 35.9666 12.7797L37.3857 12.1235C37.4517 12.0929 37.4799 12.0154 37.4501 11.9508L35.5315 7.80188C35.5013 7.7365 35.4235 7.70898 35.3582 7.73915L33.9392 8.39534C33.8732 8.42587 33.7958 8.39722 33.7659 8.33261L33.7664 8.33148ZM22.2671 29.1515L16.4939 31.8212C16.4193 31.8557 16.3313 31.8142 16.3126 31.7351L15.4889 28.3879L15.4864 28.3825L15.5307 28.362L15.5363 28.366L17.2401 29.6041L17.2614 29.5849L17.2541 29.62L19.4781 30.0603C19.5487 30.0743 19.6179 30.0283 19.6326 29.958L19.791 29.1957C19.8057 29.1254 19.7599 29.057 19.6893 29.043L17.8457 28.6771C17.8187 28.6718 17.7932 28.6574 17.7745 28.6372L17.0576 27.8474C16.9983 27.7823 17.0202 27.6788 17.1002 27.6419L20.781 25.9398C20.847 25.9092 20.9243 25.9379 20.9542 26.0025L22.3304 28.9784C22.3606 29.0438 22.3312 29.1209 22.266 29.1511L22.2671 29.1515Z" fill="white"/>
<path d="M34.934 20.5659L34.9022 20.6012L34.9062 20.6059L34.9412 20.5672L34.934 20.5659Z" fill="white"/>
<path d="M49.9641 3.31823C50.3788 4.2151 48.7021 5.8737 46.219 7.02196L44.7166 3.77295C47.1997 2.62469 49.5494 2.42137 49.9641 3.31823Z" fill="white"/>
<path d="M43.4889 4.54779L38.1118 7.0343L38.2836 7.40581L43.6607 4.9193L43.4889 4.54779Z" fill="white"/>
<path d="M44.0743 5.81573L37.4863 8.86218L37.6581 9.2337L44.2461 6.18724L44.0743 5.81573Z" fill="white"/>
<path d="M44.6618 7.0838L39.2847 9.57031L39.4565 9.94183L44.8336 7.45531L44.6618 7.0838Z" fill="white"/>
</g>
<defs>
<clipPath id="clip0_703_1105">
<rect width="53.3571" height="26.9027" fill="white" transform="translate(0 22.3951) rotate(-24.817)"/>
</clipPath>
</defs>
</svg>
