<svg width="26" height="44" viewBox="0 0 26 44" fill="none" xmlns="http://www.w3.org/2000/svg">
<g clip-path="url(#clip0_703_1116)">
<path d="M13.2925 28.2962C13.2925 27.0113 12.9155 25.8846 12.3176 25.1516C12.5161 25.0318 12.7283 24.967 12.9474 24.967C14.0095 24.967 14.9068 26.4917 14.9068 28.2962C14.9068 28.8945 14.8084 29.4613 14.6367 29.9529H13.0656C13.2123 29.45 13.2925 28.8901 13.2925 28.2962Z" fill="white"/>
<path d="M10.6431 24.967C10.8622 24.967 11.0744 25.0318 11.2737 25.1507C10.675 25.8837 10.2979 27.0104 10.2979 28.2962C10.2979 28.8901 10.3782 29.45 10.5249 29.9529H8.9529C8.78122 29.4613 8.68286 28.8945 8.68286 28.2962C8.68286 26.4917 9.58099 24.967 10.6431 24.967Z" fill="white"/>
<path d="M12.6023 28.2962C12.6023 28.8945 12.5039 29.4613 12.3322 29.9529H11.2581C11.0864 29.4613 10.988 28.8945 10.988 28.2962C10.988 27.2168 11.309 26.2371 11.7956 25.6239C12.2813 26.2371 12.6023 27.2168 12.6023 28.2962Z" fill="white"/>
<path d="M23.5903 11.9582C23.5903 14.068 23.052 16.051 22.1055 17.7716C21.2497 19.3286 20.6173 21.001 20.1764 22.7268L18.3646 29.819C18.3439 29.8978 18.274 29.9529 18.1938 29.9529H15.37C15.5166 29.4499 15.5969 28.8901 15.5969 28.2962C15.5969 26.0368 14.433 24.2672 12.9473 24.2672C12.5323 24.2672 12.1424 24.4054 11.7955 24.6547C11.4487 24.4054 11.0587 24.2672 10.6429 24.2672C9.15636 24.2672 7.9925 26.0368 7.9925 28.2962C7.9925 28.8901 8.07273 29.4499 8.2194 29.9529H5.50085C5.42061 29.9529 5.35073 29.8978 5.33089 29.8182L3.65282 23.1222C3.19211 21.2844 2.47084 19.5254 1.54337 17.8783C0.552062 16.1166 -0.0104568 14.0759 -0.000103706 11.8996C0.0300929 5.37858 5.27739 0.0463029 11.7093 -5.71174e-05C18.2636 -0.0472918 23.5903 5.32522 23.5903 11.9582Z" fill="white"/>
<path d="M17.4597 30.629H6.12999C5.68066 30.629 5.31641 30.9983 5.31641 31.4539V33.7658C5.31641 34.2213 5.68066 34.5906 6.12999 34.5906H17.4597C17.9091 34.5906 18.2733 34.2213 18.2733 33.7658V31.4539C18.2733 30.9983 17.9091 30.629 17.4597 30.629Z" fill="white"/>
<path d="M15.7159 35.2668H7.87344C7.56229 35.2668 7.31006 35.5226 7.31006 35.838V37.4379C7.31006 37.7534 7.56229 38.0091 7.87344 38.0091H15.7159C16.0271 38.0091 16.2793 37.7534 16.2793 37.4379V35.838C16.2793 35.5226 16.0271 35.2668 15.7159 35.2668Z" fill="white"/>
</g>
<defs>
<clipPath id="clip0_703_1116">
<rect width="25.0105" height="44" fill="white"/>
</clipPath>
</defs>
</svg>
