<svg width="44" height="44" viewBox="0 0 44 44" fill="none" xmlns="http://www.w3.org/2000/svg">
<path d="M44 26.1672C44 28.1938 43.0766 29.9375 41.7508 30.7148C41.0852 31.1039 40.2039 30.6711 40.2039 29.9562V29.2227C37.5523 27.7344 35.6633 29.8703 35.6633 29.8703V40.8477C35.6633 42.5891 34.2516 44 32.5102 44H21.5336C21.5336 44 19.3984 42.1109 20.8859 39.4594H21.6203C22.3344 39.4594 22.768 38.5781 22.3781 37.9125C21.6016 36.5867 19.8578 35.6633 17.8313 35.6633C15.8047 35.6633 14.0617 36.5867 13.2859 37.9125C12.8961 38.5781 13.3297 39.4594 14.0437 39.4594H14.7773C16.2656 42.1109 14.1305 44 14.1305 44H3.15313C1.41172 44 0 42.5891 0 40.8477V29.3133C0 29.3133 1.88906 27.1781 4.54063 28.6656V29.4C4.54063 30.1141 5.42188 30.5477 6.0875 30.1578C7.41328 29.3812 8.33672 27.6375 8.33672 25.6109C8.33672 23.5844 7.41328 21.8414 6.0875 21.0656C5.42188 20.6758 4.54063 21.1094 4.54063 21.8234V22.557C1.88906 24.0453 0 21.9102 0 21.9102V11.4898C0 9.74844 1.41172 8.33672 3.15313 8.33672H14.1305C14.1305 8.33672 16.2656 6.44766 14.7773 3.79609H14.0437C13.3297 3.79609 12.8961 2.91484 13.2859 2.24922C14.0617 0.923438 15.8055 0 17.8313 0C19.857 0 21.6016 0.923438 22.3781 2.24922C22.768 2.91484 22.3344 3.79609 21.6203 3.79609H20.8859C19.3984 6.44766 21.5336 8.33672 21.5336 8.33672H32.5102C34.2516 8.33672 35.6633 9.74844 35.6633 11.4898V22.4672C35.6633 22.4672 37.5523 24.6016 40.2039 23.1141V22.3797C40.2039 21.6664 41.0852 21.2328 41.7508 21.6227C43.0766 22.3977 44 24.1422 44 26.1672Z" fill="white"/>
</svg>
