<svg width="41" height="44" viewBox="0 0 41 44" fill="none" xmlns="http://www.w3.org/2000/svg">
<g clip-path="url(#clip0_703_1095)">
<path d="M40.0453 23.5165C40.0453 34.8114 30.8671 44 19.5871 44C15.0083 44 10.7783 42.4879 7.36578 39.934L5.93514 41.0319C5.66494 41.2395 5.27289 41.0762 5.22867 40.7378L4.32274 33.8099C4.27852 33.4725 4.61554 33.2137 4.92997 33.3436L11.3757 36.0224C11.6901 36.1533 11.7451 36.5753 11.4749 36.7819L10.2251 37.7401C12.9124 39.5198 16.1314 40.5567 19.5871 40.5567C28.6612 40.5567 36.0993 33.4105 36.5817 24.4432C37.1271 14.3082 28.6484 5.88503 18.5298 6.50875C11.5083 6.94162 5.62367 11.6579 3.45807 18.0722C3.32149 18.4785 2.9373 18.7501 2.5089 18.7501H1.00654C0.32954 18.7501 -0.15487 18.0929 0.046558 17.4455C2.18661 10.5541 7.87082 5.21113 14.9552 3.5623C14.9326 3.47278 14.9208 3.37833 14.9208 3.28192V1.18055C14.9208 0.531247 15.4514 0 16.0999 0H23.0733C23.7218 0 24.2524 0.531247 24.2524 1.18055V3.28192C24.2524 3.37833 24.2406 3.47278 24.218 3.5623C33.2754 5.6686 40.0453 13.8163 40.0453 23.5165Z" fill="white"/>
</g>
<defs>
<clipPath id="clip0_703_1095">
<rect width="40.0449" height="44" fill="white"/>
</clipPath>
</defs>
</svg>
